<?xml version="1.0" encoding="UTF-8" standalone="no"?>
<!-- Created with Inkscape (http://www.inkscape.org/) -->

<svg
   xmlns:dc="http://purl.org/dc/elements/1.1/"
   xmlns:cc="http://creativecommons.org/ns#"
   xmlns:rdf="http://www.w3.org/1999/02/22-rdf-syntax-ns#"
   xmlns:svg="http://www.w3.org/2000/svg"
   xmlns="http://www.w3.org/2000/svg"
   xmlns:sodipodi="http://sodipodi.sourceforge.net/DTD/sodipodi-0.dtd"
   xmlns:inkscape="http://www.inkscape.org/namespaces/inkscape"
   width="169.96078mm"
   height="178.54277mm"
   viewBox="0 0 602.22325 632.63186"
   id="svg2"
   version="1.1"
   inkscape:version="0.91 r13725"
   sodipodi:docname="rainbow-crow-logo.svg">
  <defs
     id="defs4">
    <clipPath
       clipPathUnits="userSpaceOnUse"
       id="clipPath4152">
      <path
         inkscape:connector-curvature="0"
         id="path4154"
         d="m -2696.3263,56.787994 c -2.2546,-0.203199 -4.2353,-0.694804 -4.4015,-1.092339 -0.1661,-0.397583 -1.4974,-0.837418 -2.9582,-0.977478 -1.4609,-0.14006 -3.2704,-1.076662 -4.0212,-2.081336 -0.7508,-1.004665 -4.5358,-3.173081 -8.4112,-4.81875 -3.8755,-1.645569 -8.4983,-4.222992 -10.273,-5.727485 -1.7745,-1.504623 -3.823,-2.830453 -4.5521,-2.94642 -2.0191,-0.321188 -3.0853,4.831977 -1.6903,8.170264 0.7467,1.786757 0.7861,3.361863 0.1004,4.016445 -0.6204,0.592261 -0.9128,1.593572 -0.6499,2.225125 0.547,1.309081 -4.5969,9.054915 -6.5551,9.873211 -0.7118,0.29744 -1.529,1.055199 -1.8159,1.683765 -0.2871,0.628645 -1.8328,2.258787 -3.435,3.622488 -5.8903,5.013379 -18.2238,3.667484 -25.1399,-2.743293 -3.782,-3.505609 -5.0338,-5.322434 -8.9383,-12.971812 -1.4649,-2.869592 -4.2867,-7.844442 -6.2712,-11.055181 -6.3581,-10.287518 -9.5962,-15.728578 -14.2805,-23.99552 -2.5183,-4.444303 -6.2238,-10.470081 -8.2346,-13.3906553 -2.0109,-2.9205236 -5.0744,-7.5577465 -6.8077,-10.3049948 -8.0825,-12.8105009 -9.5259,-14.9394619 -13.0899,-19.3072429 -2.0937,-2.565997 -4.2517,-4.479478 -4.7957,-4.252176 -0.5437,0.22722 -1.528,1.869075 -2.1871,3.648471 -1.0885,2.938668 -1.6526,3.366148 -6.1529,4.662708 -3.9048,1.125012 -4.945,1.756377 -4.9089,2.979596 0.036,1.218119 -0.4339,1.506156 -2.1827,1.338559 -1.2327,-0.118195 -3.6605,0.673261 -5.4344,1.77159 -3.0467,1.886413 -3.3,1.861614 -5.091,-0.497354 -1.4768,-1.944952 -2.7678,-2.428671 -5.9624,-2.233801 -2.2426,0.136775 -4.8544,0.56622 -5.8039,0.954311 -0.9492,0.388618 -2.5952,0.414566 -3.6573,0.05893 -1.0621,-0.355602 -2.9651,-0.542919 -4.2287,-0.416294 -1.9302,0.193474 -2.2672,0.735169 -2.1069,3.385984 0.3004,4.9681224 -3.3741,5.1912763 -8.1231,0.493315 -1.359,-1.344278 -1.5636,-2.378046 -0.9255,-4.677361 0.7667,-2.763317 -0.02,-4.647282 -2.565,-6.137091 -0.5767,-0.337613 -2.8978,-2.66738 -5.1581,-5.177194 -5.1575,-5.727138 -13.5798,-9.445711 -27.8515,-12.297316 -13.2352,-2.64446 -20.2683,-4.619 -30.3912,-8.532324 -8.7787,-3.393605 -28.3625,-12.231335 -34.6076,-15.617502 -4.1196,-2.23368 -18.6086,-7.812858 -25.4589,-9.80324 -2.305,-0.66968 -7.0342,-2.217865 -10.5096,-3.440283 -3.4752,-1.222519 -10.5774,-3.520106 -15.7823,-5.105893 -17.9991,-5.483692 -33.9929,-12.318924 -43.5599,-18.61631 -5.1078,-3.36214 -10.3921,-6.83463 -11.7429,-7.71661 -1.3509,-0.88197 -5.5395,-3.15542 -9.3082,-5.0521 -3.7686,-1.89672 -9.813,-5.05152 -13.4322,-7.01069 -3.619,-1.9592 -8.4782,-4.42583 -10.7981,-5.48143 -3.9541,-1.79906 -14.3275,-8.1525 -14.6772,-8.98929 -0.087,-0.20866 -2.4979,-1.9347 -5.357,-3.83568 -6.3054,-4.19222 -20.4469,-10.29729 -27.2777,-11.77612 -2.7482,-0.59505 -4.9077,-1.29895 -4.7988,-1.56427 0.1088,-0.26527 2.627,-0.56186 5.5957,-0.65899 6.9574,-0.22769 6.9975,-0.25129 7.2669,-4.27133 0.2652,-3.95921 -1.1658,-5.1688 -5.2763,-4.45962 -1.4468,0.24959 -3.9774,0.0456 -5.6238,-0.45325 l -2.9932,-0.90705 1.39,-2.57906 c 0.7645,-1.41849 2.2257,-3.0024 3.2473,-3.51987 1.0214,-0.51745 2.8318,-1.44047 4.023,-2.05124 1.1913,-0.61076 4.167,-2.72696 6.6127,-4.70268 2.4457,-1.97568 5.8723,-4.18789 7.6144,-4.91592 1.7423,-0.72808 3.2371,-1.7593 3.3218,-2.29161 0.2188,-1.37534 11.6663,-6.33934 16.7064,-7.24444 4.0365,-0.72487 15.1048,-2.81829 31.0307,-5.8691 10.881,-2.08437 25.0978,-2.74406 20.8459,-0.96727 -0.5911,0.24701 -1.57,1.65548 -2.1752,3.12989 -1.0878,2.64944 -1.072,2.69259 1.3529,3.6881 2.1064,0.86474 2.7632,0.70485 4.6416,-1.12999 1.2035,-1.1755 1.632,-2.11575 0.9522,-2.08935 -1.9911,0.0771 -1.5066,-2.74195 0.939,-5.46434 1.2447,-1.38554 3.2354,-4.71166 4.4237,-7.39139 1.1885,-2.67978 3.343,-6.29127 4.788,-8.0256 1.4449,-1.73429 2.525,-3.39766 2.4002,-3.69635 -0.3507,-0.83924 6.1707,-10.63593 8.9779,-13.48697 1.3777,-1.39926 3.3458,-2.66266 4.3733,-2.80751 1.5492,-0.21839 2.0061,0.33045 2.676,3.21517 1.6403,7.06366 -2.107,14.69049 -8.5384,17.37808 -4.5012,1.88104 -5.1646,3.49082 -1.7464,4.23791 2.2241,0.48612 2.3326,0.65892 1.2673,2.01809 -0.9707,1.23858 -0.8483,1.74438 0.7341,3.03329 1.0445,0.85077 1.9184,2.21184 1.9424,3.02451 0.025,0.85855 0.5869,1.2505 1.3417,0.93507 0.7141,-0.29838 1.1335,-1.63297 0.9322,-2.96579 -0.3058,-2.02379 0.3997,-2.93696 4.28,-5.53961 2.5553,-1.71399 5.7345,-4.02733 7.0649,-5.14078 1.3303,-1.11342 3.2303,-2.56314 4.2221,-3.22163 3.2566,-2.16204 7.4934,-6.17582 8.3156,-7.87788 0.6626,-1.37182 0.2179,-1.31058 -2.4869,0.34256 -1.8115,1.10716 -3.5749,2.47323 -3.9185,3.03562 -0.3436,0.56237 -2.676,2.16426 -5.1832,3.55981 l -4.5585,2.53735 0.5492,-2.94831 c 2.4522,-13.16115 1.8538,-25.90658 -2.536,-54.00435 -0.8061,-5.15974 -1.7579,-11.27798 -2.115,-13.59605 -0.3573,-2.31803 -1.1914,-5.51994 -1.8537,-7.11527 -2.0761,-5.00122 -3.2639,-23.60565 -1.5529,-24.32068 0.3976,-0.16617 0.5315,-0.76106 0.2971,-1.32191 -0.7803,-1.86727 3.278,-19.54126 6.3348,-27.58842 1.6583,-4.36549 2.863,-8.30103 2.6772,-8.74568 -0.1858,-0.44471 0.1463,-1.01085 0.7378,-1.25806 0.5916,-0.24722 3.9574,-7.21615 7.4797,-15.48653 6.8218,-16.01783 13.9549,-29.97654 17.7532,-34.74059 1.2759,-1.60029 3.516,-4.64441 4.978,-6.76468 1.462,-2.12027 4.9914,-6.13551 7.843,-8.92282 2.8517,-2.78735 5.9827,-6.55709 6.9579,-8.37735 5.9147,-11.0406 25.7905,-42.61045 27.1968,-43.19813 0.2815,-0.11766 0.8273,-0.82738 1.2128,-1.57709 1.3665,-2.65752 10.1957,-16.46101 11.2672,-17.61522 0.5985,-0.64464 3.1792,-4.6646 5.7348,-8.93321 2.5556,-4.26862 5.1379,-8.28463 5.7384,-8.92448 0.6006,-0.63977 2.3794,-3.18017 3.9529,-5.64531 1.5735,-2.4651 3.3442,-5.02472 3.9349,-5.68807 0.5907,-0.66335 2.7192,-3.49968 4.73,-6.30299 5.3353,-7.4379 19.0647,-23.26655 20.8155,-23.99818 0.8276,-0.34582 1.7486,-0.0452 2.0466,0.6681 0.6844,1.63757 -3.355,14.92193 -5.5884,18.37857 -0.9225,1.42783 -2.2033,3.88105 -2.8462,5.45153 -0.6428,1.57047 -1.6263,3.04661 -2.1855,3.28029 -0.5593,0.23372 -0.7701,1.01529 -0.4686,1.73677 0.6931,1.6587 -1.8403,4.84478 -3.9006,4.90539 -0.9229,0.0272 -2.1968,1.59954 -3.1222,3.85376 -0.8598,2.09433 -1.8922,3.94524 -2.2942,4.11324 -0.4019,0.16796 -0.7102,1.0069 -0.6849,1.86421 0.025,0.85741 -0.4244,1.75533 -0.9991,1.99547 -0.5746,0.24015 -1.5281,1.75411 -2.1188,3.36433 -0.5907,1.61022 -1.5449,3.3388 -2.1206,3.84124 -0.5757,0.50243 -0.5869,1.24282 -0.025,1.64518 1.4515,1.03939 8.8977,-4.50742 16.184,-12.05582 5.7724,-5.98004 17.7809,-19.01308 19.9784,-21.68279 10.6394,-12.92623 13.9696,-16.6873 19.9592,-22.54173 3.8896,-3.80186 7.3522,-7.41982 7.6949,-8.03994 1.0591,-1.91715 21.7665,-21.59216 32.349,-30.73638 12.9727,-11.20944 19.7984,-16.2062 27.7161,-20.28961 l 6.4098,-3.30575 0.6598,3.28142 c 1.6447,8.1791 -3.6471,17.83595 -19.4785,35.54608 -1.7742,1.98477 -4.1148,4.67155 -5.2011,5.97055 -1.7365,2.07644 -2.2247,2.27733 -4.0391,1.66262 -2.211,-0.74914 -5.7993,1.69045 -5.0664,3.44437 0.4849,1.16033 1.6623,0.70776 2.3189,-0.89155 0.3027,-0.73753 1.1493,-1.11357 2.1489,-0.95448 1.3696,0.21785 1.3907,0.4854 0.1245,1.57756 -0.8386,0.72329 -2.1726,2.03101 -2.9642,2.9058 -0.7916,0.8749 -3.2787,2.28654 -5.527,3.13705 -5.8809,2.22488 -9.9996,6.27975 -8.944,8.80559 0.8572,2.0514 -1.86,5.12399 -4.2019,4.75146 -0.6169,-0.0982 -1.2174,0.65477 -1.3344,1.67307 -0.117,1.01833 -0.8887,1.87143 -1.7149,1.89573 -0.8263,0.0243 -1.646,0.92138 -1.8216,1.99348 -0.1757,1.07214 -1.9701,3.49389 -3.9876,5.38164 -4.7055,4.40323 -5.1167,5.36052 -2.8189,6.56324 2.4913,1.30418 9.1444,-2.28697 17.9713,-9.70032 9.5163,-7.99242 38.4708,-33.53769 52.2656,-46.11158 6.4944,-5.91972 12.6693,-11.53408 13.722,-12.47634 1.0527,-0.94233 4.1142,-3.81163 6.8033,-6.37635 2.6891,-2.56464 7.7307,-7.32206 11.2038,-10.57199 3.4729,-3.24995 7.1533,-6.90387 8.1786,-8.1199 3.6922,-4.37905 18.41,-16.72684 21.4532,-17.99859 3.8249,-1.59836 6.0821,0.41553 5.2817,4.71199 -0.2898,1.55559 -0.1548,3.09497 0.3002,3.42072 0.4551,0.32575 0.1258,1.85122 -0.7318,3.38982 -0.8575,1.53867 -1.191,3.06112 -0.7411,3.38327 1.9095,1.36719 -7.4248,17.11221 -15.7346,26.54061 -2.5994,2.9493 -5.1999,5.56032 -5.779,5.8023 -0.5791,0.24198 -2.3752,1.93289 -3.9914,3.75754 -2.122,2.39574 -3.9607,3.56469 -6.6174,4.20724 -3.3362,0.80674 -3.8377,1.31144 -5.3859,5.42108 -0.9391,2.49235 -2.1535,4.71795 -2.6987,4.94578 -0.5453,0.22788 -2.1704,1.79595 -3.6114,3.48473 -1.9056,2.23335 -3.2919,3.09502 -5.0848,3.16063 -2.7116,0.0992 -4.4423,2.26159 -3.5393,4.42232 0.3545,0.8483 -0.3207,1.52279 -2.0409,2.039 -2.0371,0.61132 -2.4152,1.14311 -1.8221,2.56258 0.6851,1.63937 1.3988,1.53385 8.4214,-1.24562 5.4969,-2.17569 9.9521,-4.7214 15.7103,-8.97709 7.0599,-5.21777 21.8088,-16.18848 30.0948,-22.38562 1.5429,-1.15393 7.6301,-5.84526 13.5272,-10.42527 12.3713,-9.60822 21.8397,-14.50796 24.4988,-12.67789 1.2613,0.86801 1.4927,2.69948 1.0797,8.54648 -0.55,7.78851 -3.0883,13.57737 -8.4296,19.22444 -1.5273,1.61473 -4.5846,4.84057 -6.7941,7.16842 -2.2094,2.32789 -4.6839,4.96562 -5.4987,5.86163 -0.8149,0.89598 -1.8914,1.71841 -2.3922,1.82764 -1.6541,0.36064 -4.4054,3.1641 -4.0171,4.09329 0.2097,0.50174 1.8344,1.44539 3.6105,2.09685 3.0964,1.1358 3.5358,1.02211 10.6797,-2.76428 9.4792,-5.02419 28.1057,-12.82196 31.6962,-13.26907 4.2059,-0.52406 5.2576,3.32525 3.2088,11.74293 -1.2932,5.31332 -2.6448,8.00444 -5.7579,11.46387 -2.2376,2.48634 -4.5811,4.73497 -5.2079,4.99691 -0.6269,0.26198 -1.3643,1.02317 -1.6388,1.69172 -0.2744,0.66843 -3.4417,3.3622 -7.0384,5.98621 -8.4998,6.20098 -9.3625,7.36426 -10.6974,14.42426 -0.6162,3.25827 -1.374,6.76565 -1.684,7.79418 -0.7744,2.56846 -6.9484,12.6157 -9.5671,15.56874 -2.9666,3.34549 -3.6112,4.47597 -6.171,10.82238 -1.2319,3.05408 -2.0364,6.03954 -1.7879,6.63436 1.0113,2.42002 -0.079,7.93857 -1.7029,8.61708 -1.0123,0.42304 -1.3261,1.09835 -0.7774,1.67296 1.444,1.51258 -2.422,9.42852 -5.2397,10.72853 -1.7097,0.78853 -2.3353,1.71854 -2.0561,3.05501 0.2209,1.05658 9e-4,2.81045 -0.4887,3.89748 -1.4872,3.30158 -1.5639,6.98473 -0.1797,8.61766 0.7582,0.89453 1.2241,3.55189 1.1043,6.29915 -0.114,2.61364 -0.081,5.05948 0.073,5.43521 0.5504,1.3446 -3.109,9.98955 -4.471,10.5587 -0.7639,0.31924 -1.2589,0.89187 -1.0999,1.27238 0.5823,1.39347 -5.0153,14.95895 -6.4138,15.54336 -0.7933,0.33155 -1.5231,1.10991 -1.6217,1.72971 -0.099,0.61981 0.2079,0.96507 0.6812,0.7673 0.4734,-0.19782 2.2104,0.5849 3.8603,1.7393 l 2.9997,2.09889 -1.0837,5.16511 c -1.2708,6.05717 -3.8897,12.73908 -7.1316,18.19553 -1.359,2.28732 -2.0001,4.65406 -1.5515,5.72755 0.4497,1.07625 0.1076,2.33044 -0.831,3.04637 -1.723,1.31425 -1.6573,2.58545 0.1485,2.87271 2.6652,0.42389 2.8218,4.70168 0.4144,11.31409 -2.5171,6.91356 -7.3268,13.28177 -12.702,16.81787 -1.6941,1.11449 -3.9562,4.38008 -5.828,8.4134 -1.6826,3.62557 -4.2858,8.03878 -5.785,9.80711 -3.0092,3.54936 -4.8622,11.46351 -3.1132,13.29559 0.6144,0.64355 0.8455,2.06461 0.515,3.15736 -0.4728,1.55996 -0.3263,1.96764 0.6808,1.8959 0.9696,-0.0691 1.173,0.70369 0.832,3.16318 -0.2482,1.79008 -0.7119,3.36366 -1.0305,3.49678 -0.5077,0.21217 -3.9427,5.85762 -6.032,9.91352 -0.3993,0.7752 -0.3117,2.4011 0.1948,3.61312 0.5065,1.212 0.4942,2.38196 -0.027,2.59998 -0.5216,0.21798 -0.5241,0.70012 -0.01,1.07146 0.5186,0.37129 1.2005,0.31531 1.5153,-0.1244 1.219,-1.70244 2.3139,0.63071 1.9192,4.08947 -0.2543,2.22758 -1.7696,5.22355 -3.925,7.76006 -1.9309,2.2724 -4.9595,7.62868 -6.73,11.90284 -2.529,6.1048 -2.9351,8.14399 -1.8936,9.50932 0.8768,1.14957 1.0129,3.6724 0.4018,7.45063 -0.8145,5.03589 -0.6453,6.19069 1.4287,9.7489 1.5145,2.59832 2.0895,4.40388 1.614,5.06791 -0.4062,0.56734 -0.4046,1.83058 0,2.80726 0.4081,0.97667 0.2645,3.02068 -0.3191,4.5422 -0.5835,1.52149 -1.3931,4.56204 -1.799,6.75672 -1.1234,6.07558 -4.5037,13.00716 -8.4967,17.42384 -3.2869,3.63556 -3.4886,4.24922 -2.3375,7.11288 1.0507,2.61338 0.9215,3.33621 -0.7768,4.35114 -1.1201,0.66939 -2.6878,2.38586 -3.484,3.81438 -1.0826,1.94233 -2.34,2.81313 -4.9862,3.45305 -2.5978,0.62819 -3.7703,1.42011 -4.4101,2.97859 -1.9459,4.73975 2.1518,7.67815 8.7387,6.26636 2.5287,-0.542 5.0696,-0.6476 5.6463,-0.23469 0.6003,0.42993 3.0005,-0.14727 5.6154,-1.35037 4.7029,-2.16375 5.6136,-3.62333 1.9374,-3.10508 -2.6908,0.37933 -2.3939,-1.4342 0.5444,-3.32521 1.2595,-0.8106 7.1199,-5.20875 13.0233,-9.77373 5.9033,-4.56494 13.4317,-10.16526 16.7297,-12.44514 3.298,-2.27983 9.0506,-6.6391 12.7836,-9.68722 3.733,-3.04817 9.6308,-7.80018 13.1062,-10.56004 8.1243,-6.45156 20.4238,-17.29337 22.6794,-19.9915 0.9645,-1.15364 3.1206,-2.99546 4.7916,-4.093 1.671,-1.09754 3.0175,-2.69957 2.9922,-3.56004 -0.025,-0.86044 0.5977,-1.58342 1.3847,-1.60659 0.7869,-0.0232 2.0335,-0.99525 2.7703,-2.16018 0.7368,-1.16494 1.4375,-1.88389 1.5571,-1.59766 0.1196,0.28624 1.7034,-1.29557 3.5197,-3.51518 1.8161,-2.21952 3.6471,-4.17971 4.0687,-4.35589 0.4217,-0.17622 3.7141,-3.63485 7.3164,-7.6858 3.6025,-4.05104 7.4375,-8.07328 8.5225,-8.9384 1.085,-0.86514 2.9707,-2.58315 4.1904,-3.81781 6.286,-6.36264 8.4777,-8.3692 11.7937,-10.79759 1.9936,-1.45996 4.4359,-3.25188 5.4275,-3.98214 0.9916,-0.73021 3.6447,-1.79204 5.8961,-2.35968 3.4052,-0.85854 4.4471,-0.65747 6.1972,1.19603 2.4282,2.57136 4.4361,8.80923 4.3284,13.44618 -0.091,3.90841 -2.2667,9.02995 -3.9565,9.31254 -0.6824,0.11411 -1.2096,0.86166 -1.1714,1.66113 0.046,0.97151 0.4456,1.09392 1.2063,0.36812 0.6254,-0.59707 2.5519,-0.9562 4.2811,-0.79811 2.3437,0.21433 4.8446,-0.55743 9.8258,-3.03213 4.7237,-2.34677 7.3188,-3.18035 8.8554,-2.84453 1.4328,0.31318 3.137,-0.18156 5.0002,-1.45149 1.6494,-1.12429 4.3188,-2.0252 6.4096,-2.16325 l 3.5831,-0.23666 3.7153,8.09211 c 4.5058,9.81369 4.4145,10.85619 -1.8167,20.73533 -3.4095,5.40557 -5.0782,7.23339 -6.8477,7.5007 -1.4384,0.21724 -2.1748,0.74797 -1.9117,1.37758 0.313,0.74904 -0.165,0.96737 -1.7792,0.81258 -1.2139,-0.11636 -3.4199,0.55201 -4.9022,1.48524 -1.4824,0.93328 -3.7762,2.3646 -5.0971,3.18067 -1.3211,0.81611 -2.5074,1.74032 -2.636,2.05374 -0.4157,1.0127 5.6814,-0.4727 7.19,-1.75163 0.8556,-0.72524 2.1727,-0.86653 3.1767,-0.34095 1.3292,0.69577 1.9002,0.54482 2.5363,-0.67051 0.6484,-1.23859 1.5364,-1.2935 4.2223,-0.2612 3.4744,1.33534 11.7679,0.0128 19.1479,-3.05354 5.5606,-2.31038 13.0528,-3.36735 13.0976,-1.8477 0.05,1.70646 4.0476,1.21813 5.5969,-0.68373 1.2559,-1.54185 7.8507,-3.0354 9.8246,-2.22495 2.5588,1.05049 5.698,6.66309 5.2055,9.30693 -0.702,3.76849 0.3695,5.33875 3.5249,5.1654 1.5554,-0.0855 3.6962,-0.045 4.7572,0.0899 1.0612,0.13488 2.4623,0.0226 3.1136,-0.24962 0.6514,-0.27221 2.2058,-0.24981 3.4541,0.0498 2.2275,0.53462 2.2482,0.60197 1.1147,3.62866 l -1.155,3.08399 2.4883,0.54386 c 1.7693,0.38673 2.7123,1.31725 3.2636,3.22056 0.7078,2.44373 0.3512,2.97638 -4.0977,6.12014 -4.9778,3.51749 -14.8415,10.88996 -21.2426,15.87749 -1.9641,1.53036 -3.4375,3.43888 -3.2741,4.24109 0.282,1.38502 6.3965,2.35239 8.7232,1.38008 1.5907,-0.66473 16.2891,-1.66038 20.5149,-1.38965 3.7168,0.2381 3.8141,0.3306 5.5366,5.26322 0.9644,2.76144 1.5541,6.52427 1.3107,8.36176 -0.3628,2.73914 -0.9602,3.50008 -3.3163,4.22444 -1.5807,0.48597 -4.0847,2.10957 -5.5646,3.60799 -4.2118,4.26445 -25.3667,15.39357 -42.7259,22.47709 -10.0543,4.10269 -16.4619,7.15835 -17.7629,8.47069 -3.7462,3.77894 -1.5325,3.99745 6.5836,0.64999 13.581,-5.60147 20.5076,-7.79128 25.786,-8.15201 7.8239,-0.53468 22.5426,0.32587 25.3606,1.48274 1.384,0.56825 2.873,0.88412 3.309,0.70192 0.4359,-0.18215 1.9104,0.4252 3.2765,1.34972 2.3444,1.58636 2.4355,1.81794 1.623,4.1176 -0.4847,1.37163 -0.3079,3.52087 0.4045,4.91694 0.9857,1.93164 0.7781,3.4064 -0.9393,6.66849 -1.2126,2.30356 -3.5037,5.19622 -5.0912,6.42809 -3.6604,2.84031 -4.458,5.45225 -2.666,8.72985 0.778,1.42296 1.304,3.73948 1.169,5.14781 l -0.2453,2.56057 -3.9223,-0.62388 c -3.724,-0.59237 -3.9473,-0.5192 -4.4194,1.44778 -0.3489,1.45358 0.028,2.62491 1.2623,3.92598 2.387,2.51561 2.4351,2.81699 0.4598,2.87515 -0.9379,0.0276 -2.3856,1.05579 -3.2173,2.2847 -1.2344,1.82403 -2.6126,2.50776 -7.5016,3.72149 -7.3188,1.816926 -15.6761,3.176778 -24.4124,3.972228 -3.623,0.329887 -9.9671,1.008154 -14.098,1.507232 -4.1309,0.499069 -9.5631,1.093923 -12.0715,1.321836 -2.5084,0.227955 -5.4429,0.785431 -6.5211,1.238873 -1.0781,0.453942 -2.3206,0.566484 -2.7609,0.251236 -0.4402,-0.315239 -2.8379,-0.32161 -5.3279,-0.01419 -2.4901,0.307441 -4.7402,0.04997 -5.0002,-0.572171 -0.26,-0.622152 -1.1919,-1.110007 -2.0708,-1.084154 -2.4123,0.071 -1.8475,3.046162 0.816,4.298103 1.8198,0.855317 2.4987,0.751935 3.1429,-0.478627 0.5134,-0.980675 0.8676,-1.170293 0.9442,-0.505391 0.1697,1.476577 5.0022,2.961326 10.6501,3.272339 2.6079,0.143567 5.4723,0.85635 6.3655,1.583914 0.8932,0.727573 2.3665,1.01258 3.274,0.633347 0.9075,-0.379232 2.473,-0.258702 3.479,0.267855 1.0059,0.52658 3.8219,0.975608 6.2576,0.997862 2.4359,0.02221 5.2079,0.675072 6.1602,1.450769 0.9523,0.775707 2.169,0.992599 2.7039,0.481978 0.5347,-0.510589 3.1556,0.06866 5.8242,1.287233 2.6685,1.218593 5.3434,2.010219 5.9444,1.759033 0.6009,-0.251104 3.4944,0.487828 6.4297,1.642113 3.7756,1.484679 5.6441,2.833192 6.3863,4.609145 0.577,1.380747 1.5025,2.9854 2.0567,3.565912 0.5676,0.594598 0.2127,2.931519 -0.8128,5.351691 -1.0014,2.362962 -1.3949,4.742029 -0.8748,5.286966 0.6241,0.653575 0.1987,1.302917 -1.2501,1.908347 -1.2078,0.504744 -2.5886,2.028547 -3.0685,3.386254 -0.4797,1.357677 -1.2417,2.622891 -1.6932,2.811547 -0.4514,0.188655 -1.1984,1.262813 -1.6599,2.386982 -1.2601,3.069584 -6.9823,4.322883 -18.7948,4.116431 -9.3357,-0.163107 -10.3472,0.0045 -11.5558,1.91533 -1.1096,1.754528 -1.064,2.086473 0.2813,2.046845 2.51,-0.07385 2.8292,2.195072 0.6409,4.556105 l -1.9906,2.147853 3.3427,1.0875 c 3.6581,1.1901 4.8515,2.66184 2.84,3.502425 -0.9707,0.405652 -0.8401,1.255953 0.5316,3.459813 1.4555,2.338858 1.527,3.043855 0.358,3.532362 -0.8636,0.36087 -1.1546,1.34259 -0.7121,2.40156 0.4678,1.119499 0.1515,2.040719 -0.8436,2.456554 -0.8757,0.365941 -1.9454,1.759734 -2.3772,3.097371 -0.4625,1.432117 -1.8935,2.895252 -3.4807,3.5585099 -2.3843,0.9963597 -2.5688,1.4297718 -1.598,3.7528347 0.7343,1.7573487 0.6322,2.970818 -0.3086,3.6671305 -2.5929,1.91912067 -12.2589,5.1617357 -17.0393,5.7161243 -5.3361,0.6188304 -6.4248,1.7904634 -3.5546,3.8253715 1.7646,1.251044 1.7543,1.8489442 -0.1059,6.1352071 -2.8441,6.553539 -4.2223,8.096744 -7.3209,8.197452 -3.3718,0.10973 -4.5794,1.377698 -3.8773,4.070812 0.861,3.301955 -3.6802,5.405587 -8.4455,3.912352 -2.0199,-0.633028 -4.4234,-0.845243 -5.3409,-0.471699 -0.9173,0.374144 -4.1828,0.32598 -7.2563,-0.105707 -3.0733,-0.431718 -6.0934,-0.581772 -6.7112,-0.333491 -0.6175,0.248878 -2.0751,2.425287 -3.2383,4.837642 -3.3113,6.86673 -9.1931,15.063862 -11.5387,16.080854 -1.1738,0.509147 -2.6694,1.844021 -3.3233,2.966777 -1.6425,2.819898 -6.8023,4.697727 -11.696,4.256562 z m -16.9803,-18.606152 c -1.724,-4.125537 -2.6403,-4.592592 -3.7426,-1.907553 -0.6691,1.629725 0.789,6.012164 2.192,6.588136 2.5109,1.030843 3.1417,-0.873242 1.5506,-4.680583 z m -37.982,-14.898327 c -0.5245,-0.793343 -1.9432,-1.185045 -3.1527,-0.870382 -1.9594,0.509713 -2.0056,0.729691 -0.4239,2.018119 2.1788,1.774783 4.926,0.893216 3.5766,-1.147737 z m 145.527,-66.337113 c -0.3342,-0.799757 -1.606,-1.041581 -3.1428,-0.597538 -2.4961,0.721226 -2.8447,2.714709 -0.6334,3.622559 1.5512,0.636843 4.3646,-1.616892 3.7762,-3.025021 z m -12.8824,-15.171553 c -3.2402,-6.383353 -9.1517,-7.081284 -6.2726,-0.74052 1.6912,3.724796 4.3641,5.515162 6.2754,4.203424 0.8895,-0.61047 0.8885,-1.706601 0,-3.462863 z m 61.4682,-51.073549 c -0.7754,-1.85547 -4.5423,-3.70758 -6.1632,-3.03021 -1.6959,0.70869 -1.0097,1.80065 2.2853,3.63703 3.2502,1.8115 4.7879,1.57084 3.8779,-0.60682 z m -79.3891,13.931301 c -0.4678,-1.119225 -4.3573,-1.49816 -4.7812,-0.465759 -0.4555,1.109619 2.4202,2.467376 3.9086,1.845382 0.6786,-0.283576 1.0712,-0.904374 0.8726,-1.379633 z m -3.9029,-6.821941 c -0.2059,-0.49257 -0.7773,-0.72717 -1.2698,-0.52134 -0.4926,0.20583 -0.7272,0.77726 -0.5213,1.26983 0.2058,0.49258 0.7772,0.72718 1.2698,0.52135 0.4925,-0.20583 0.7271,-0.77726 0.5213,-1.26984 z m -241.761,87.426175 c 0.2145,-1.348449 -1.9139,-1.706254 -2.7988,-0.470466 -0.7429,1.037545 0.5878,2.373736 1.8421,1.849567 0.4343,-0.181498 0.865,-0.802182 0.9567,-1.379101 z m 258.0116,-127.340305 c -0.1061,-0.52632 -0.9546,-0.79824 -1.886,-0.60399 -1.0592,0.22087 -1.4626,0.90543 -1.0772,1.82785 0.6512,1.55814 3.3026,0.46302 2.9632,-1.2239 z m -182.9611,-2.54199 c -0.068,-2.31319 -0.1995,-2.46059 -1.6521,-1.85356 -1.5821,0.66117 -1.9778,2.55769 -0.7211,3.45734 1.3694,0.98055 2.4282,0.26503 2.3732,-1.60378 z m 5.0399,-6.33632 c -0.1202,-1.62015 -3.84,-3.40814 -4.6723,-2.24579 -1.0215,1.42662 0.2918,4.40099 1.9321,4.37585 1.7183,-0.0263 2.8321,-0.89206 2.7402,-2.13006 z m 87.1393,-41.45114 c -0.2997,-0.71721 -6.8408,1.60643 -6.9797,2.47946 -0.08,0.49972 1.4914,0.22497 3.4907,-0.61055 1.9993,-0.83547 3.5694,-1.67651 3.489,-1.86891 z m 8.1825,-3.7052 c -0.7194,0.009 -1.7271,0.42991 -2.239,0.93566 -0.5118,0.50573 0.077,0.49848 1.3082,-0.0161 1.2316,-0.51464 1.6503,-0.92842 0.9308,-0.91958 z m -74.9065,17.73543 c -0.3209,-0.76794 -0.8825,-0.97871 -1.2478,-0.46845 -0.3653,0.51026 -0.5058,1.30698 -0.3121,1.77049 0.1937,0.4635 0.7552,0.67432 1.2477,0.46849 0.4926,-0.20583 0.6331,-1.0026 0.3122,-1.77053 z m 147.2235,-61.42737 c -0.06,-2.0354 -2.3801,-2.33205 -2.7182,-0.34753 -0.3826,2.24509 0.089,2.99047 1.5155,2.3944 0.6862,-0.28673 1.2273,-1.20781 1.2027,-2.04687 z m -177.9264,71.56302 c -0.2536,-1.20373 -0.8168,-1.24471 -2.4301,-0.17683 -2.6415,1.74849 -1.8124,4.46946 0.8739,2.86816 1.0375,-0.61846 1.7378,-1.82957 1.5562,-2.69133 z m 26.1792,-10.44637 c -0.8842,-1.32301 -5.4744,-0.95789 -4.9109,0.39064 0.2232,0.53396 3.145,1.05532 5.483,0.97839 0.1845,-0.006 -0.073,-0.62211 -0.5721,-1.36899 z m 44.5622,-22.19486 c 1.446,-1.2758 0.7884,-1.15762 -2.6571,0.47756 -2.5181,1.19506 -4.7429,2.57354 -4.9441,3.06331 -0.5008,1.21996 5.2322,-1.45069 7.6012,-3.54087 z m 9.1208,-5.86535 c -0.2058,-0.49257 -0.7535,-0.73711 -1.217,-0.54342 -0.4635,0.19368 -0.9233,0.85925 -1.0219,1.47905 -0.099,0.6198 0.4486,0.86452 1.2169,0.54344 0.768,-0.32092 1.2278,-0.9865 1.022,-1.47907 z m 45.5061,-44.6653 c -0.5983,-1.43159 -8.6768,-0.49841 -10.465,1.20883 -1.5152,1.44662 -1.2648,1.95813 1.2811,2.61769 2.8383,0.73521 9.8665,-2.19312 9.1839,-3.82647 z m -12.6484,3.19016 c -0.953,-1.09265 -3.7031,-0.55734 -5.368,1.04495 -1.0899,1.04888 -0.8895,1.25882 1.4185,1.48655 2.926,0.28856 5.16,-1.14343 3.9495,-2.5315 z m -231.5906,65.6122 c -0.5102,-0.36538 -1.4051,-0.45755 -1.9885,-0.20488 -0.6375,0.27596 -0.38,0.58194 0.6452,0.76627 2.1853,0.39285 2.4952,0.26333 1.3433,-0.56139 z m -53.621,-11.25594 c -0.2058,-0.49258 -0.9651,-0.64866 -1.6873,-0.34688 -1.5665,0.65463 -8.8136,0.392 -9.1159,-0.33032 -0.2856,-0.68223 -6.2436,1.84784 -6.6457,2.8221 -0.1753,0.42475 0.5819,1.05512 1.6828,1.40078 4.0565,1.27389 16.6012,-1.5473 15.7662,-3.54564 z m -18.8247,2.78322 c -0.1713,-0.40993 -1.8741,-0.59161 -3.7838,-0.40376 -2.7103,0.26658 -3.4634,0.64308 -3.4319,1.71567 0.022,0.75576 0.6031,1.36889 1.2914,1.36225 2.1191,-0.02 6.2536,-1.88627 5.9243,-2.67416 z m -8.8168,0.46224 c 0.088,-0.55485 -0.5383,-0.98826 -1.3924,-0.96312 -0.9433,0.0278 -1.3372,0.5619 -1.0033,1.361 0.6054,1.44851 2.1426,1.19318 2.3957,-0.39788 z m -5.2403,-2.89541 c -1.2908,-0.52996 -1.4692,1.15457 -0.2172,2.051 0.9458,0.67717 1.1571,0.58971 1.0801,-0.4472 -0.053,-0.7089 -0.4409,-1.43071 -0.8629,-1.60389 z m -3.3071,1.15919 c -0.4416,-1.05667 -2.6606,-1.45715 -3.0341,-0.54751 -0.3734,0.9096 1.4869,2.18396 2.5435,1.7424 0.4635,-0.19368 0.6843,-0.73138 0.4906,-1.19489 z m 1.9365,-4.92527 c 1.1524,-1.64995 -1.2275,-2.23981 -4.7496,-1.17722 -3.1903,0.96249 -2.5267,3.69102 0.7324,3.0115 1.1976,-0.2497 2.3991,-0.48943 2.6703,-0.53283 0.2712,-0.0434 0.8773,-0.62904 1.3469,-1.30145 z m -17.2937,-1.08009 c -0.7657,-0.40326 -2.0503,-0.46429 -2.8546,-0.13561 -0.8044,0.32857 -4.3518,0.86432 -7.8834,1.19041 -7.0317,0.64921 -11.4293,2.09972 -11.7097,3.86234 -0.099,0.62419 0.6486,1.06466 1.662,0.97887 1.0134,-0.0858 2.7942,-0.14415 3.9575,-0.1297 3.1625,0.0393 10.1952,-1.63308 14.4532,-3.43706 2.9086,-1.23233 3.4499,-1.76311 2.375,-2.32925 z m -73.7188,21.93004 c 3.2363,-3.48174 7.6981,-7.22753 9.5119,-7.98547 0.7744,-0.32361 1.3871,-1.29413 1.3618,-2.15682 -0.025,-0.86264 0.462,-1.65808 1.0833,-1.7677 0.6212,-0.10956 1.0982,-0.85336 1.06,-1.65284 -0.052,-1.08128 -0.4261,-1.09128 -1.4627,-0.0389 -0.7663,0.7781 -3.8263,2.99037 -6.7998,4.91613 -7.9325,5.13717 -11.2612,9.27444 -10.2533,12.74376 0.7628,2.62613 0.8804,2.67219 1.8862,0.73764 0.5899,-1.13479 2.2155,-3.29287 3.6126,-4.79583 z m 171.462,-70.5153 c -0.4277,-1.02331 -2.866,-0.0315 -3.0696,1.24855 -0.085,0.53339 0.1718,1.1036 0.5699,1.26736 0.991,0.40682 2.9124,-1.52723 2.4993,-2.51574 z m -119.7388,47.8182 c -0.9112,-0.37407 -1.3504,-0.25265 -1.1159,0.30853 0.2127,0.509 0.7677,1.08182 1.2333,1.27299 0.4656,0.19114 0.9678,0.0523 1.1159,-0.30853 0.1481,-0.36082 -0.4064,-0.93389 -1.2333,-1.27299 z m -12.6076,3.95585 c 2.5731,-1.42297 3.6174,-3.56146 2.2259,-4.5578 -1.5585,-1.11592 -9.9773,2.69234 -9.3374,4.22376 0.2868,0.68617 1.2525,1.22606 2.146,1.1998 0.9094,-0.0268 1.533,0.52844 1.4165,1.26112 -0.1329,0.83586 0.083,0.90267 0.5967,0.18482 0.4426,-0.61824 1.7712,-1.65852 2.9523,-2.3117 z m 70.0619,-32.69575 c 8.6756,-5.04392 7.4363,-5.50399 -2.9425,-1.09218 -9.2917,3.94974 -11.9604,5.81231 -10.1674,7.0962 0.9848,0.70505 3.7428,-0.55806 13.1099,-6.00402 z m 10.5,-6.37702 c -0.422,-0.17324 -1.2078,0.11775 -1.7462,0.64672 -0.5949,0.58443 -0.294,0.70795 0.7672,0.31496 0.9603,-0.35568 1.4008,-0.78836 0.979,-0.96162 z m 5.9157,-2.88853 c 1.3021,-1.3453 1.186,-1.40814 -1.0197,-0.55193 -1.369,0.53143 -2.3208,1.36927 -2.1149,1.86184 0.4393,1.05116 1.1276,0.7635 3.1346,-1.30991 z m 45.0862,-33.08309 c 2.1507,-1.77623 4.0157,-3.26057 4.1444,-3.29852 0.1289,-0.0379 0.2103,-0.40941 0.1811,-0.82549 -0.1089,-1.5514 -5.9409,0.64194 -9.2153,3.4658 -3.1022,2.67538 -3.2095,2.96927 -1.2551,3.43832 1.1754,0.2821 2.1591,0.49859 2.1858,0.48117 0.027,-0.0173 1.8084,-1.48505 3.9591,-3.26128 z m -8.7753,3.59775 c -0.422,-0.17323 -1.2077,0.11776 -1.7462,0.64673 -0.5948,0.58439 -0.294,0.70795 0.7672,0.31496 0.9604,-0.35563 1.4009,-0.78835 0.979,-0.96163 z m 165.9924,-79.25076 c -0.2059,-0.49258 -0.7773,-0.72718 -1.2699,-0.52135 -0.4926,0.20587 -0.7272,0.7773 -0.5214,1.26988 0.2059,0.49257 0.7773,0.72717 1.27,0.5213 0.4925,-0.20583 0.7271,-0.77726 0.5213,-1.26983 z m 27.437,-26.12077 c 0.2145,-1.34845 -1.9141,-1.7062 -2.7989,-0.47046 -0.7428,1.03754 0.5879,2.3737 1.8421,1.84957 0.4345,-0.18154 0.865,-0.80213 0.9568,-1.37911 z m -9.0158,-65.73621 c -0.2059,-0.49257 -0.9788,-0.64297 -1.7177,-0.3342 -0.7388,0.30877 -1.1749,0.9644 -0.9691,1.45697 0.2059,0.49257 0.9788,0.64298 1.7177,0.33421 0.7388,-0.30877 1.1749,-0.96441 0.9691,-1.45698 z m -5.4118,-57.78067 c -0.3977,-0.45574 -1.1061,-0.66864 -1.5741,-0.47308 -0.4678,0.19553 -0.8141,0.84913 -0.7694,1.45239 0.045,0.60328 0.7532,0.81618 1.5741,0.47314 0.8211,-0.34312 1.1672,-0.99668 0.7694,-1.45245 z m 34.9735,-70.35202 c -0.5886,-1.40852 -2.6655,-1.10405 -3.5129,0.51483 -0.4685,0.89504 -0.9666,1.35273 -1.1069,1.01707 -0.1403,-0.33566 -0.6088,-0.1162 -1.0412,0.48811 -0.5386,0.75224 -0.1661,1.06181 1.183,0.98281 2.2697,-0.13286 4.9315,-1.91754 4.4781,-3.00256 z m -144.996,54.81854 c 1.6049,-1.05442 3.1497,-2.67447 3.433,-3.60028 0.2832,-0.92565 1.6508,-2.15774 3.0391,-2.73789 2.8896,-1.20755 3.5328,-2.85392 1.3599,-3.48131 -2.324,-0.67092 -13.1122,6.01396 -14.3123,8.86863 -1.1123,2.64597 0.7515,5.5515 2.494,3.88789 0.5875,-0.56094 2.3813,-1.88258 3.9863,-2.93704 z m -60.901,23.92027 c 0.7929,-1.15601 0.5939,-1.27105 -1.0401,-0.60123 -1.1113,0.45634 -1.8525,1.23143 -1.6466,1.724 0.4689,1.12207 1.4193,0.72488 2.6867,-1.12277 z m 74.1823,-36.46097 c 0.8495,2.03278 3.1765,-0.0873 3.0878,-2.81321 -0.049,-1.50628 -0.2801,-2.817 -0.5135,-2.91285 -0.6606,-0.27129 -6.6318,4.55301 -7.1798,5.80094 -0.2903,0.66119 0.2525,1.50226 1.3353,2.06917 1.681,0.87987 1.864,0.79113 2.3246,-1.12795 0.2748,-1.14553 0.7004,-1.60281 0.9456,-1.0161 z m 8.7238,-1.78053 c -0.5705,-1.36524 -2.5206,-2.60364 -3.0141,-1.91433 -0.9717,1.35717 0.3747,3.45731 1.8273,2.85028 0.7388,-0.30877 1.2729,-0.72996 1.1868,-0.93595 z m 33.2753,-16.03326 c -0.091,-0.21724 -0.6721,-0.47562 -1.2919,-0.57423 -0.6198,-0.0986 -0.9485,0.2475 -0.7305,0.76917 0.218,0.52166 0.7993,0.78006 1.2919,0.57423 0.4925,-0.20584 0.8213,-0.55201 0.7305,-0.76917 z m -53.5577,578.982175 c -1.7771,-1.272342 -3.2963,-2.681729 -3.376,-3.13196 -0.08,-0.450099 -0.7855,-1.497691 -1.5684,-2.327721 -6.6149,-7.012458 -9.1173,-9.444063 -9.8367,-9.558463 -0.4608,-0.07333 -1.1792,-2.111462 -1.5965,-4.529139 -0.8437,-4.889551 -3.12,-7.044237 -5.2718,-4.989944 -0.7933,0.757433 -1.1256,0.698073 -0.9866,-0.176226 0.1153,-0.725116 0.6894,-1.519795 1.2756,-1.765917 0.5863,-0.246064 0.6305,-1.7365972 0.099,-3.3121591 -1.0521,-3.1153694 -0.5673,-5.9577186 1.1376,-6.6701753 0.6889,-0.2879109 1.3416,0.5792575 1.8069,2.4008685 0.4078,1.596043 0.1818,3.0799848 -0.5133,3.3704722 -0.6829,0.2853753 -1.107,0.8413077 -0.9423,1.235368 0.63,1.507462 3.4521,1.9237457 5.9539,0.8782695 l 2.6069,-1.0893991 -1.3246,2.4578693 c -1.2903,2.394141 -1.2227,2.618305 2.6032,8.643016 2.1604,3.401823 4.4298,6.425129 5.0429,6.718582 0.6133,0.293392 1.4923,1.436637 1.9536,2.540478 0.4613,1.10386 1.2959,2.079711 1.8546,2.168605 2.1128,0.336071 4.7296,4.346468 4.5193,6.92619 l -0.2058,2.524772 -3.231,-2.313387 z m 10.9923,-26.321266 c -0.9385,-0.168721 -2.9204,0.186106 -4.4045,0.788561 -1.484,0.602465 -3.4718,0.943505 -4.4172,0.757832 -1.4919,-0.292887 -1.5669,-0.601501 -0.5684,-2.334854 1.0029,-1.7408478 1.4608,-1.9296419 3.5649,-1.4697615 5.0108,1.0952425 8.0899,-2.7388455 3.3208,-4.1351272 -3.455,-1.0115463 -3.473,-1.3306566 -0.2595,-4.58437827 2.5248,-2.55629763 3.0966,-2.78502263 6.7115,-2.68451763 2.1734,0.060431 4.4721,-0.3870059 5.1081,-0.9942501 1.6104,-1.5374373 6.9456,-0.6858608 10.6277,1.6962935 4.9415,3.1968835 4.4004,4.2902833 -1.0606,2.14334885 -6.165,-2.42371835 -8.8521,-2.20181125 -9.5049,0.78490035 -0.2648,1.2114423 -1.9587,4.0061967 -3.7644,6.2106238 -3.7966,4.6352022 -3.1992,4.2087282 -5.3535,3.8213392 z m -16.2762,-3.9264946 c -5.1651,0.9208613 -4.4758,-0.9019585 1.245,-3.292641 2.981,-1.2457462 4.0379,-1.2573847 4.9553,-0.05449 1.32,1.7304085 0.557,2.1423025 -6.2003,3.3471314 z m 41.6194,-17.8196134 c -0.5093,-0.209082 -1.1843,-0.99805 -1.4999,-1.753337 -0.4213,-1.008061 -0.1981,-1.219031 0.8389,-0.793303 0.777,0.319032 1.4519,1.108021 1.4997,1.753419 0.048,0.645388 -0.3295,1.002293 -0.8387,0.793221 z m -17.3361,3.1462149 c -0.3088,-0.7388654 0.043,-1.5960001 0.7819,-1.9047681 0.7388,-0.3087272 1.5961,0.043132 1.9048,0.7819975 0.3088,0.7388557 -0.043,1.596041 -0.782,1.9047682 -0.7389,0.308768 -1.596,-0.043142 -1.9047,-0.7819976 z m -22.4364,0.4340268 c -0.5103,-0.3653417 -0.501,-0.8426244 0.021,-1.0606433 0.5216,-0.217978 1.1168,0.00669 1.3227,0.499258 0.2058,0.4925802 0.1965,0.9698532 -0.021,1.0606024 -0.2172,0.09079 -0.8124,-0.1338657 -1.3227,-0.4992171 z m -9.3301,2.8469696 c 0.099,-0.619809 0.357,-1.2011634 0.5741,-1.2919126 0.2172,-0.090749 0.5634,0.2379471 0.7693,0.7305273 0.2058,0.4925705 -0.053,1.0739347 -0.5743,1.2919535 -0.5216,0.217978 -0.8677,-0.1107689 -0.7691,-0.7305682 z M -3181.4477,-157.71881 c 0.5384,-0.52886 1.3241,-0.81985 1.746,-0.64668 0.4219,0.17326 -0.019,0.60598 -0.9789,0.96162 -1.0612,0.39296 -1.3622,0.26948 -0.7671,-0.315 z m -6.5431,-1.54403 c -0.2645,-1.13217 -0.9739,-1.434 -2.183,-0.92872 -0.9851,0.41166 -1.4799,1.21017 -1.0994,1.7744 0.3804,0.56426 0.087,1.27857 -0.6516,1.5873 -1.9015,0.79462 -2.2596,-0.72511 -0.8862,-3.76028 1.3653,-3.01704 2.2007,-3.05186 5.5642,-0.23188 2.2162,1.85793 2.3203,2.11963 1.053,2.6492 -0.8418,0.35179 -1.5628,-0.0853 -1.7974,-1.08985 z"
         style="fill-opacity:1" />
    </clipPath>
  </defs>
  <sodipodi:namedview
     id="base"
     pagecolor="#ffffff"
     bordercolor="#666666"
     borderopacity="1.0"
     inkscape:pageopacity="0.0"
     inkscape:pageshadow="2"
     inkscape:zoom="1"
     inkscape:cx="258.25074"
     inkscape:cy="428.84857"
     inkscape:document-units="px"
     inkscape:current-layer="layer1"
     showgrid="false"
     inkscape:window-width="3840"
     inkscape:window-height="2054"
     inkscape:window-x="0"
     inkscape:window-y="50"
     inkscape:window-maximized="1"
     fit-margin-top="0"
     fit-margin-left="0"
     fit-margin-right="0"
     fit-margin-bottom="0" />
  <metadata
     id="metadata7">
    <rdf:RDF>
      <cc:Work
         rdf:about="">
        <dc:format>image/svg+xml</dc:format>
        <dc:type
           rdf:resource="http://purl.org/dc/dcmitype/StillImage" />
        <dc:title></dc:title>
      </cc:Work>
    </rdf:RDF>
  </metadata>
  <g
     inkscape:label="Layer 1"
     inkscape:groupmode="layer"
     id="layer1"
     transform="translate(2855.8221,277.13541)">
    <rect
       style="fill:#000000;fill-opacity:1"
       id="rect4438"
       width="1225.7142"
       height="48.57143"
       x="-1048.5714"
       y="-1424.7806" />
    <g
       id="g4156">
      <path
         inkscape:connector-curvature="0"
         id="path4151"
         d="m -2501.0439,353.70021 c -1.8875,-0.9964 -3.4318,-2.14408 -3.4318,-2.55029 0,-0.40626 -0.9982,-1.27283 -2.2181,-1.92573 -1.2199,-0.6529 -2.4535,-2.12545 -2.7414,-3.27236 -0.2879,-1.1469 -2.7923,-4.4092 -5.5653,-7.24959 -2.7731,-2.84033 -5.8576,-6.76298 -6.8545,-8.7169 -0.9967,-1.95397 -2.2967,-3.85199 -2.8888,-4.21792 -1.6397,-1.01341 -4.4405,3.08179 -4.4405,6.49293 0,1.82575 -0.5383,3.21028 -1.3727,3.53046 -0.755,0.28968 -1.3734,1.05442 -1.3743,1.69938 0,1.33765 -7.2906,6.20586 -9.2915,6.20586 -0.7273,0 -1.7137,0.36209 -2.1918,0.80458 -0.4782,0.44253 -2.4155,1.29867 -4.305,1.90253 -6.9465,2.21992 -17.1863,-3.43445 -20.8722,-11.52543 -2.0156,-4.42441 -2.4441,-6.45995 -3.0599,-14.5336 -0.2311,-3.02879 -0.8774,-8.38229 -1.4365,-11.89674 -1.7912,-11.26055 -2.6301,-17.17092 -3.6998,-26.06529 -0.575,-4.78158 -1.608,-11.37054 -2.2955,-14.64215 -0.6876,-3.2716 -1.6668,-8.41922 -2.1759,-11.43917 -2.3741,-14.08218 -2.8558,-16.4589 -4.3684,-21.5541 -0.8885,-2.99329 -2.0702,-5.44235 -2.626,-5.44235 -0.5556,0 -2.0087,1.07045 -3.2289,2.37877 -2.0152,2.16067 -2.6613,2.32748 -7.0475,1.81939 -3.8058,-0.44084 -4.9402,-0.26975 -5.3535,0.80745 -0.4116,1.0727 -0.9249,1.15252 -2.3853,0.37098 -1.0294,-0.55095 -3.4291,-0.74503 -5.3715,-0.43444 -3.3361,0.53346 -3.5474,0.41982 -4.2479,-2.28336 -0.5776,-2.22877 -1.5248,-3.11887 -4.3747,-4.11069 -2.0006,-0.69627 -4.4287,-1.27213 -5.3958,-1.27971 -0.967,-0.007 -2.4083,-0.58279 -3.2029,-1.27824 -0.7947,-0.69546 -2.382,-1.55018 -3.5273,-1.8994 -1.7494,-0.53336 -2.2395,-0.18465 -3.0637,2.17959 -1.5447,4.43103 -4.8223,3.28938 -7.2457,-2.52382 -0.6935,-1.66342 -0.4957,-2.63709 0.8953,-4.4053 1.6715,-2.12512 1.6715,-4.0502 -4e-4,-6.27119 -0.3789,-0.50332 -1.5511,-3.37378 -2.605,-6.37878 -2.4046,-6.85698 -8.3794,-13.15351 -19.7579,-20.8223 -10.5521,-7.11178 -15.9525,-11.38618 -23.3359,-18.47035 -6.403,-6.14341 -20.2264,-20.95066 -24.4281,-26.16657 -2.7717,-3.44069 -13.3476,-13.56118 -18.5832,-17.7829 -1.7617,-1.42049 -5.3129,-4.48647 -7.8918,-6.81326 -2.5787,-2.32681 -7.9217,-6.90732 -11.873,-10.17892 -13.6642,-11.31349 -25.0925,-23.07365 -31.1257,-32.02968 -3.2211,-4.78158 -6.5556,-9.7233 -7.4101,-10.98161 -0.8545,-1.25831 -3.6718,-4.75869 -6.2607,-7.77864 -2.5888,-3.01994 -6.7001,-7.96166 -9.1362,-10.9816 -2.436,-3.01994 -5.7664,-6.93214 -7.4008,-8.69377 -2.7857,-3.00244 -9.5,-12.30036 -9.5,-13.15542 0,-0.21321 -1.4696,-2.59105 -3.2657,-5.28408 -3.9612,-5.93905 -14.0436,-16.39068 -19.4482,-20.16031 -2.1744,-1.5167 -3.7971,-2.91407 -3.6059,-3.10527 0.1911,-0.19121 2.4895,0.4662 5.1073,1.46091 6.1351,2.33113 6.1786,2.32519 7.8743,-1.07396 1.67,-3.34774 0.8649,-4.92018 -2.9687,-5.79753 -1.3493,-0.30883 -3.4766,-1.40623 -4.7274,-2.43868 l -2.2741,-1.87717 2.1467,-1.73826 c 1.1807,-0.95604 3.0276,-1.80272 4.1044,-1.88149 1.0767,-0.0788 2.9871,-0.22363 4.2454,-0.3219 1.2583,-0.0983 4.6162,-0.85742 7.462,-1.68703 2.8457,-0.8296 6.6307,-1.50837 8.4109,-1.50837 1.7803,0 3.4555,-0.35368 3.7227,-0.78594 0.6903,-1.11689 12.4531,-1.27367 17.1666,-0.2288 3.7749,0.8368 14.1643,3.03931 29.1275,6.17488 10.2232,2.14231 22.8303,6.7366 18.4857,6.7366 -0.604,0 -1.9676,0.86937 -3.0301,1.93195 -1.9094,1.90934 -1.9113,1.95263 -0.1638,3.70014 1.518,1.51796 2.1475,1.61764 4.4486,0.70437 1.4742,-0.58511 2.1888,-1.24725 1.5878,-1.47143 -1.7601,-0.65669 -0.3138,-2.93292 2.8033,-4.41212 1.5865,-0.75279 4.5273,-2.92257 6.5352,-4.8217 2.008,-1.89914 5.1951,-4.25759 7.0826,-5.241 1.8874,-0.98342 3.4317,-2.03774 3.4317,-2.34295 0,-0.85756 9.2344,-7.00908 12.7128,-8.46876 1.7072,-0.71637 3.8785,-1.09998 4.825,-0.85247 1.4271,0.37323 1.625,1.01674 1.1591,3.76972 -1.1409,6.74104 -7.1733,12.01344 -13.745,12.01344 -4.5995,0 -5.7618,1.15921 -3.0598,3.05174 1.758,1.23137 1.7896,1.42115 0.3688,2.21625 -1.2947,0.72456 -1.3721,1.20906 -0.4641,2.90554 0.5993,1.11977 0.8648,2.6215 0.5902,3.33716 -0.2901,0.75605 0.056,1.30119 0.8273,1.30119 0.7296,0 1.5796,-1.00851 1.889,-2.24112 0.4697,-1.87168 1.4154,-2.40958 5.737,-3.26308 2.846,-0.56207 6.4526,-1.41874 8.0147,-1.90371 1.562,-0.48497 3.7418,-1.05542 4.844,-1.26767 3.6189,-0.69693 8.7636,-2.64839 10.0976,-3.83013 1.0751,-0.95249 0.666,-1.06086 -2.2879,-0.60606 -1.9783,0.30462 -4.0089,0.85193 -4.5123,1.21623 -0.5033,0.36432 -3.1146,0.90993 -5.803,1.21249 l -4.8879,0.55012 1.5496,-2.36509 c 6.9176,-10.55758 11.0303,-21.8625 17.4259,-47.90081 1.1744,-4.78158 2.5706,-10.44988 3.1026,-12.59622 0.5319,-2.14634 0.9703,-5.23492 0.9741,-6.86349 0.012,-5.10534 5.7419,-21.72132 7.4903,-21.72132 0.4063,0 0.739,-0.46884 0.739,-1.04193 0,-1.90802 9.9553,-15.80751 15.5398,-21.69658 3.0295,-3.19477 5.5082,-6.18037 5.5082,-6.63472 0,-0.45442 0.4947,-0.82618 1.0992,-0.82618 0.6045,0 6.0658,-4.83879 12.1364,-10.75282 11.7572,-11.45419 23.0367,-21.00394 28.0728,-23.76743 1.6916,-0.92831 4.7469,-2.76209 6.7895,-4.07505 2.0426,-1.31296 6.5725,-3.52283 10.0664,-4.9109 3.494,-1.38808 7.5881,-3.5292 9.0981,-4.75818 9.1588,-7.45417 37.9254,-27.69173 39.3624,-27.69173 0.2877,0 1.0205,-0.41898 1.6284,-0.93102 2.1548,-1.81504 14.8533,-10.61321 16.205,-11.22774 0.755,-0.34321 4.4613,-2.90207 8.2362,-5.68635 3.7749,-2.78428 7.4812,-5.33911 8.2362,-5.67742 0.755,-0.33823 3.2259,-1.9015 5.4909,-3.47392 2.2649,-1.57242 4.7357,-3.15538 5.4907,-3.5177 0.755,-0.36232 3.6377,-2.0559 6.406,-3.76354 7.3451,-4.53079 25.0426,-13.30927 26.8316,-13.30927 0.8456,0 1.5375,0.59637 1.5375,1.32519 0,1.6733 -8.3431,11.76108 -11.5425,13.95616 -1.3216,0.90671 -3.3276,2.57518 -4.4577,3.70768 -1.1301,1.13249 -2.5223,2.05905 -3.0937,2.05905 -0.5715,0 -1.039,0.60326 -1.039,1.34049 0,1.6949 -3.3621,3.54552 -5.1764,2.84928 -0.8127,-0.3118 -2.4925,0.59286 -4.117,2.21741 -1.5093,1.50931 -3.0802,2.74415 -3.491,2.74415 -0.4107,0 -0.9838,0.61776 -1.2735,1.37271 -0.2898,0.75502 -1.0073,1.3727 -1.5945,1.3727 -0.5872,0 -1.967,0.9704 -3.0662,2.15642 -1.0992,1.18601 -2.5577,2.34282 -3.2411,2.57064 -0.6835,0.22777 -0.9624,0.86777 -0.6197,1.42212 0.8849,1.43186 9.3788,-0.68649 18.4613,-4.60414 7.1953,-3.1037 22.3795,-10.07585 25.2616,-11.59943 13.9544,-7.37693 18.2186,-9.43811 25.5572,-12.35358 4.7657,-1.8933 9.0931,-3.78184 9.6166,-4.19673 1.6183,-1.28272 26.7842,-10.87054 39.3142,-14.97817 15.36,-5.03529 23.1142,-6.9007 31.4863,-7.57461 l 6.7777,-0.54556 -0.6189,3.0944 c -1.5426,7.71296 -9.6565,14.18984 -29.8665,23.84092 -2.2649,1.08161 -5.2777,2.56801 -6.6949,3.30312 -2.2655,1.17503 -2.7632,1.17232 -4.1181,-0.022 -1.651,-1.45543 -5.6594,-0.63767 -5.6594,1.15453 0,1.18565 1.1888,1.21999 2.3413,0.0674 0.5315,-0.53152 1.4046,-0.55091 2.2164,-0.0491 1.1122,0.68738 1.0333,0.9278 -0.4652,1.41758 -0.9925,0.32432 -2.6283,0.977 -3.6349,1.45023 -1.0067,0.47331 -3.6834,0.79719 -5.9484,0.71974 -5.9247,-0.20243 -10.9816,1.8277 -10.9816,4.40867 0,2.09617 -3.4807,3.78126 -5.3825,2.60586 -0.501,-0.30968 -1.2971,0.12702 -1.769,0.97034 -0.472,0.84331 -1.4534,1.30491 -2.181,1.02568 -0.7276,-0.27923 -1.7668,0.20316 -2.3093,1.07195 -0.5426,0.86879 -2.9839,2.3232 -5.4252,3.23196 -5.6941,2.11982 -6.3998,2.80309 -4.8381,4.68468 1.6931,2.04017 8.7862,1.33478 19.1597,-1.90538 11.1838,-3.49325 45.658,-15.18961 62.2291,-21.11302 7.8015,-2.78874 15.2141,-5.42798 16.4724,-5.86498 1.2583,-0.43706 4.9646,-1.82016 8.2362,-3.07368 3.2716,-1.25344 9.3868,-3.55921 13.5895,-5.1238 4.2026,-1.56465 8.7325,-3.40532 10.0665,-4.09042 4.8037,-2.4672 22.0956,-7.85836 25.2053,-7.85836 3.9083,0 5.1398,2.57247 2.8816,6.01901 -0.8176,1.24788 -1.2597,2.6361 -0.9823,3.08488 0.2774,0.44878 -0.5636,1.6561 -1.8689,2.68281 -1.3053,1.02678 -2.1489,2.22992 -1.8746,2.67373 1.1641,1.88349 -12.6797,12.18694 -23.3359,17.36799 -3.3334,1.62067 -6.5448,2.94666 -7.1365,2.94666 -0.5917,0 -2.7689,0.81798 -4.8381,1.81775 -2.7169,1.31266 -4.7413,1.66115 -7.286,1.25432 -3.1955,-0.51102 -3.8152,-0.25427 -6.656,2.75791 -1.7229,1.82676 -3.5884,3.32136 -4.1455,3.32136 -0.5572,0 -2.5409,0.77332 -4.4084,1.71855 -2.4696,1.25007 -3.9888,1.49569 -5.5723,0.901 -2.3949,-0.89939 -4.6865,0.35251 -4.6865,2.56039 0,0.86682 -0.8325,1.20813 -2.5166,1.03184 -1.9943,-0.20873 -2.5166,0.1164 -2.5166,1.56685 0,1.67514 0.6592,1.84279 7.7786,1.97779 5.5728,0.10564 10.3738,-0.48934 16.93,-2.09814 8.0383,-1.97252 24.8566,-6.15446 34.3175,-8.53323 1.7617,-0.44292 8.7624,-2.31111 15.5573,-4.15156 14.2548,-3.86098 24.2726,-4.68131 25.9205,-2.12267 0.7817,1.21362 0.3172,2.89095 -2.1676,7.82718 -3.3098,6.57535 -7.6223,10.6884 -14.3216,13.65914 -1.9156,0.84946 -5.7479,2.54422 -8.5162,3.76603 -2.7682,1.22189 -5.8797,2.61692 -6.9142,3.10018 -1.0346,0.48319 -2.27,0.8073 -2.7454,0.72025 -1.57,-0.28757 -4.9825,1.15102 -4.9825,2.10049 0,0.51269 1.0703,1.9242 2.3785,3.13656 2.2807,2.11367 2.7043,2.17451 10.2953,1.47769 10.0725,-0.92465 29.1105,-0.93681 32.3965,-0.0205 3.8492,1.07305 3.3648,4.80394 -1.4775,11.38177 -3.0565,4.152 -5.2106,6.00167 -9.1763,7.87938 -2.8503,1.34949 -5.7064,2.45365 -6.3469,2.45365 -0.6406,0 -1.5588,0.3941 -2.0406,0.8759 -0.4817,0.48172 -4.2162,1.67367 -8.2989,2.64883 -9.6483,2.30438 -10.8216,3.00274 -14.5494,8.659 -1.7205,2.6104 -3.6547,5.38604 -4.2983,6.16807 -1.6073,1.95283 -10.6306,8.4486 -13.9821,10.06553 -3.7969,1.83181 -4.7686,2.5809 -9.3025,7.17114 -2.1818,2.20898 -3.967,4.51358 -3.967,5.12138 0,2.47283 -2.9548,6.87704 -4.6139,6.87704 -1.0344,0 -1.5529,0.47338 -1.2845,1.17269 0.7063,1.84074 -5.5344,7.32151 -8.4581,7.42811 -1.774,0.0644 -2.6563,0.64601 -2.8992,1.91014 -0.192,0.9994 -1.0209,2.44516 -1.842,3.21278 -2.4939,2.33146 -3.8996,5.50756 -3.2891,7.43125 0.3344,1.05379 -0.2263,3.53483 -1.3292,5.88116 -1.0493,2.23219 -1.9097,4.37185 -1.912,4.75481 -0.01,1.36978 -6.336,7.55982 -7.7277,7.55982 -0.7806,0 -1.4194,0.31817 -1.4194,0.70699 0,1.42387 -9.8008,11.18975 -11.2298,11.18975 -0.8107,0 -1.7285,0.41181 -2.0396,0.91514 -0.3111,0.50332 -0.1699,0.91513 0.3137,0.91513 0.4837,0 1.7102,1.31234 2.7258,2.91634 l 1.8465,2.91633 -2.8204,4.09922 c -3.3074,4.80723 -8.0147,9.66783 -12.8184,13.23594 -2.0137,1.49573 -3.4318,3.32152 -3.4318,4.41843 0,1.09974 -0.7535,2.06642 -1.8303,2.34799 -1.9766,0.51693 -2.3816,1.64663 -0.9151,2.553 2.1644,1.33761 0.7455,5.11581 -3.7525,9.99287 -4.7029,5.09914 -11.2019,8.89047 -17.1633,10.01253 -1.8789,0.35364 -5.0338,2.3721 -8.1283,5.20027 -2.7817,2.54226 -6.6506,5.435 -8.5976,6.4283 -3.908,1.99371 -8.397,8.20466 -7.5415,10.43423 0.3005,0.78317 -0.015,2.1034 -0.6998,2.93383 -0.9784,1.18514 -0.9991,1.59306 -0.097,1.89674 0.8686,0.29234 0.7646,1.03856 -0.4261,3.05414 -0.8666,1.46701 -1.8421,2.66728 -2.1676,2.66728 -0.5188,0 -5.5592,3.66232 -8.8511,6.43109 -0.6292,0.52917 -1.144,1.97543 -1.144,3.2139 0,1.23845 -0.436,2.25174 -0.9691,2.25174 -0.533,0 -0.7104,0.41853 -0.3943,0.93007 0.3162,0.51153 0.9297,0.71071 1.3634,0.44264 1.6793,-1.03783 1.7836,1.38982 0.1829,4.25514 -1.031,1.84536 -3.4383,3.90072 -6.2354,5.32372 -2.5058,1.27484 -7.0875,4.83337 -10.1815,7.90786 -4.4192,4.39128 -5.5138,6.01755 -5.1041,7.58389 0.3448,1.31875 -0.4539,3.56286 -2.359,6.62743 -2.5392,4.08468 -2.8118,5.15076 -2.3011,9.00005 0.3729,2.81085 0.2167,4.59054 -0.4383,4.99534 -0.5596,0.34587 -1.0174,1.44537 -1.0174,2.44336 0,0.99799 -0.868,2.72388 -1.9288,3.83531 -1.0607,1.11144 -2.8703,3.46212 -4.0212,5.22376 -3.1859,4.87681 -8.6462,9.67787 -13.7254,12.06839 -4.1809,1.96775 -4.5794,2.42827 -4.6191,5.33783 -0.036,2.65537 -0.4112,3.23718 -2.2575,3.50272 -1.2177,0.17513 -3.2055,1.09838 -4.4174,2.05163 -1.6478,1.29612 -3.0582,1.59653 -5.5928,1.19124 -2.4882,-0.3979 -3.7961,-0.13525 -4.9192,0.98791 -3.4158,3.41576 -0.9193,7.46155 5.3239,8.62791 2.3968,0.44777 4.6455,1.27957 4.9971,1.84843 0.3659,0.59221 2.6637,0.96264 5.3758,0.86665 4.8777,-0.17264 6.2005,-1.11129 2.8141,-1.99687 -2.4786,-0.64817 -1.5611,-2.11786 1.6824,-2.69472 1.3903,-0.24729 8.0872,-1.94286 14.8821,-3.76795 6.7948,-1.82509 15.3797,-3.96009 19.0775,-4.74445 3.6977,-0.78435 10.2867,-2.4853 14.6421,-3.77986 4.3555,-1.29457 11.2135,-3.2844 15.2401,-4.42182 9.4127,-2.65889 24.0534,-7.61911 26.9964,-9.14627 1.2584,-0.65295 3.8036,-1.47135 5.6562,-1.81866 1.8526,-0.34732 3.6063,-1.25145 3.8971,-2.00918 0.2907,-0.75773 1.0956,-1.16013 1.7886,-0.89422 0.693,0.26591 2.1308,-0.12652 3.1952,-0.87207 1.0644,-0.74556 1.9353,-1.11626 1.9353,-0.82379 0,0.29248 1.9528,-0.50779 4.3397,-1.77838 2.3867,-1.27058 4.6921,-2.31014 5.1229,-2.31014 0.4309,0 4.5523,-1.81182 9.1586,-4.02625 4.6065,-2.21444 9.4048,-4.3193 10.6631,-4.67747 1.2584,-0.35816 3.5233,-1.16718 5.0332,-1.79782 7.7812,-3.24981 10.4172,-4.1986 14.1846,-5.10563 2.265,-0.5453 5.041,-1.21627 6.1691,-1.49104 1.128,-0.27477 3.822,-0.23398 5.9869,0.0907 3.2743,0.49101 4.1075,1.04466 4.9562,3.29326 1.1775,3.11955 0.6566,9.27587 -1.1227,13.27046 -1.4998,3.36696 -5.2545,7.03122 -6.8272,6.66277 -0.6351,-0.14881 -1.3655,0.30983 -1.6229,1.01919 -0.3129,0.86194 -0.01,1.11361 0.9156,0.75876 0.7611,-0.29204 2.5675,0.0959 4.0143,0.86201 1.9609,1.03844 4.417,1.27622 9.6498,0.93425 4.9623,-0.3243 7.5228,-0.10607 8.7375,0.7447 1.1325,0.79327 2.7949,0.98243 4.8773,0.555 1.8436,-0.3784 4.4932,-0.19174 6.3622,0.44824 l 3.203,1.09667 0.2903,8.39002 c 0.3521,10.17499 -0.1063,11.04868 -9.1182,17.37744 -4.931,3.46293 -7.0471,4.44634 -8.6836,4.03561 -1.3302,-0.33389 -2.1638,-0.13993 -2.1638,0.50342 0,0.76538 -0.4952,0.78154 -1.8431,0.0601 -1.0137,-0.54252 -3.1757,-0.76304 -4.8044,-0.49006 -1.6288,0.27299 -4.1445,0.68426 -5.5903,0.91396 -1.4459,0.22969 -2.8138,0.60244 -3.0396,0.82834 -0.7298,0.72983 5.1141,1.65412 6.8914,1.08999 1.0079,-0.31988 2.205,0.036 2.8874,0.85822 0.9033,1.08844 1.4549,1.1647 2.4501,0.33873 1.0143,-0.84176 1.8067,-0.56673 3.7679,1.30766 2.537,2.42467 10.2324,4.28908 17.767,4.30446 5.6771,0.0116 12.5789,1.81576 12.0654,3.15398 -0.5767,1.50271 3.0783,2.53111 5.1174,1.43986 1.653,-0.88473 7.9328,0.21339 9.3553,1.63597 1.8441,1.84405 2.5346,7.86768 1.145,9.98852 -1.9806,3.02306 -1.6193,4.77858 1.1886,5.77483 1.3842,0.49109 3.2318,1.30451 4.1057,1.80762 0.8741,0.5031 2.1337,0.91473 2.7993,0.91473 0.6656,0 2.0096,0.58453 2.9866,1.29896 1.7434,1.27483 1.7369,1.34094 -0.3494,3.56184 l -2.1259,2.2629 1.9669,1.37768 c 1.3986,0.97962 1.8806,2.13187 1.6683,3.988 -0.2726,2.38315 -0.7765,2.71685 -5.7895,3.83434 -5.6089,1.25035 -16.8695,4.07803 -24.251,6.08975 -2.2649,0.61728 -4.2404,1.74191 -4.3899,2.49916 -0.2582,1.30734 4.7092,4.37165 7.0867,4.37165 1.6254,0 14.7736,4.47711 18.3513,6.24883 3.1467,1.55827 3.1977,1.6741 2.903,6.59122 -0.1649,2.75279 -1.0198,6.24049 -1.8995,7.75046 -1.3114,2.2509 -2.1077,2.69568 -4.4206,2.46931 -1.5517,-0.15186 -4.3202,0.35024 -6.1523,1.11575 -5.2141,2.1786 -27.6627,4.16956 -45.3387,4.02106 -10.2377,-0.086 -16.9226,0.24279 -18.5314,0.91147 -4.6326,1.9255 -2.7863,2.92033 5.4908,2.95873 13.8506,0.0643 20.6721,0.67733 25.395,2.28238 7.0005,2.37908 19.4916,8.47831 21.5224,10.50908 0.9974,0.99745 2.1779,1.81353 2.6234,1.81353 0.4454,0 1.5073,1.06436 2.3596,2.36522 1.4627,2.23223 1.4578,2.46682 -0.085,4.17194 -0.9203,1.01698 -1.5478,2.9509 -1.4356,4.42433 0.1553,2.03869 -0.5614,3.24613 -3.2412,5.45955 -1.8923,1.56306 -4.9369,3.24654 -6.7657,3.74106 -4.2167,1.14018 -5.8601,3.12236 -5.4927,6.62503 0.1595,1.52066 -0.225,3.72706 -0.8544,4.9031 l -1.1443,2.13826 -3.1852,-1.96855 c -3.0242,-1.86908 -3.2451,-1.88663 -4.3708,-0.34714 -0.8319,1.13766 -0.9301,2.29352 -0.3291,3.87413 1.162,3.0561 1.0943,3.33577 -0.6452,2.66828 -0.8259,-0.31694 -2.4591,0.0512 -3.6293,0.81791 -1.7369,1.138 -3.1844,1.23176 -7.8786,0.51032 -7.0272,-1.08001 -14.7916,-2.93514 -22.6806,-5.41906 -3.2716,-1.03008 -9.037,-2.74631 -12.8119,-3.81383 -3.7749,-1.06753 -8.7167,-2.52482 -10.9816,-3.23841 -2.265,-0.71359 -5.0204,-1.2954 -6.1232,-1.29291 -1.1028,0.003 -2.2246,-0.35079 -2.493,-0.78508 -0.2684,-0.43428 -2.3518,-1.31142 -4.6297,-1.9492 -2.2779,-0.63776 -4.1417,-1.67971 -4.1417,-2.31543 0,-0.63573 -0.6333,-1.39888 -1.4073,-1.69591 -2.1243,-0.81517 -2.7145,1.97828 -0.8526,4.03561 1.2721,1.40558 1.9003,1.56246 2.908,0.72615 0.8031,-0.66647 1.1802,-0.70264 1.0051,-0.0964 -0.3891,1.3462 3.275,4.39454 8.0751,6.71825 2.2164,1.07291 4.4491,2.73427 4.9616,3.69188 0.5125,0.95762 1.6905,1.74112 2.6178,1.74112 0.9273,0 2.2454,0.67398 2.9291,1.49774 0.6836,0.82374 2.97,2.23803 5.0808,3.14285 2.1109,0.90482 4.285,2.48046 4.8314,3.50142 0.5464,1.02097 1.526,1.65196 2.1769,1.4022 0.6508,-0.24977 2.7202,1.2069 4.5986,3.23703 1.8784,2.03015 3.9175,3.69117 4.5317,3.69117 0.614,0 2.8624,1.69464 4.9963,3.76585 2.7447,2.66406 3.8799,4.51639 3.8799,6.3311 0,1.41088 0.2218,3.14324 0.4929,3.84971 0.2776,0.72358 -0.8807,2.62746 -2.6526,4.35999 -1.7301,1.69154 -2.9373,3.61805 -2.6829,4.28119 0.3053,0.79542 -0.3008,1.20565 -1.7812,1.20565 -1.2342,0 -2.9893,0.82362 -3.9003,1.83026 -0.9109,1.00665 -2.0337,1.83027 -2.495,1.83027 -0.4613,0 -1.5016,0.66287 -2.3117,1.47304 -2.2121,2.21216 -7.6455,1.22225 -17.8462,-3.25147 -8.062,-3.53569 -9.0028,-3.75757 -10.7488,-2.53468 -1.6031,1.1229 -1.6841,1.42824 -0.4994,1.88282 2.2103,0.8482 1.6632,2.93801 -1.0987,4.1964 l -2.5125,1.14478 2.5125,2.16118 c 2.7496,2.3651 3.2528,4.07924 1.1974,4.07924 -0.9919,0 -1.1874,0.78716 -0.7953,3.20297 0.4159,2.5637 0.2218,3.20297 -0.9727,3.20297 -0.8824,0 -1.4925,0.74819 -1.4925,1.83027 0,1.14393 -0.6101,1.8303 -1.6269,1.8303 -0.8948,0 -2.332,0.82362 -3.1939,1.83027 -0.9229,1.0777 -2.6997,1.83026 -4.3215,1.83026 -2.4363,0 -2.7544,0.30994 -2.7544,2.6837 0,1.7957 -0.53,2.81417 -1.6015,3.07791 -2.9533,0.72685 -12.5406,0.0338 -16.9006,-1.22171 -4.8669,-1.40149 -6.2399,-0.77805 -4.4828,2.03554 1.0802,1.72975 0.8539,2.24613 -2.3225,5.29855 -4.8565,4.66708 -6.6164,5.50852 -9.3485,4.46971 -2.973,-1.13026 -4.4845,-0.46626 -4.8527,2.13176 -0.4514,3.18538 -5.1665,3.36453 -8.7691,0.33322 -1.527,-1.28496 -3.5407,-2.34331 -4.4746,-2.35188 -0.934,-0.008 -3.7572,-1.237 -6.2739,-2.72981 -2.5166,-1.4928 -5.0892,-2.72119 -5.7169,-2.7298 -0.6277,-0.008 -2.6868,1.35543 -4.5757,3.03108 -5.3767,4.76972 -13.4732,9.7623 -15.8834,9.79429 -1.2062,0.0162 -2.9925,0.63373 -3.9695,1.37271 -2.4539,1.85598 -7.6251,1.6138 -11.7218,-0.54896 z m -8.0075,-22.35845 c 0,-4.21557 -0.6273,-4.95496 -2.5623,-3.01994 -1.1745,1.17448 -1.4992,5.51687 -0.4881,6.52794 1.8095,1.80951 3.0504,0.38243 3.0504,-3.508 z m -27.625,-26.76765 c -0.1679,-0.88082 -1.2596,-1.73728 -2.4262,-1.90326 -1.8898,-0.26889 -2.0099,-0.0943 -1.1024,1.60148 1.2502,2.33596 3.9605,2.56776 3.5286,0.30178 z m 150.7106,-4.80447 c 0,-0.81721 -1.0184,-1.48989 -2.5167,-1.66228 -2.4336,-0.28001 -3.4615,1.32743 -1.8679,2.92104 1.1179,1.1179 4.3846,0.1801 4.3846,-1.25876 z m -5.6913,-17.88098 c -0.4981,-6.73081 -5.3869,-9.48695 -5.1874,-2.92444 0.1172,3.85506 1.7915,6.38417 3.931,5.93788 0.9957,-0.2077 1.3933,-1.1616 1.2563,-3.01344 z m 72.0384,-22.08407 c 0,-1.89596 -2.6036,-4.87651 -4.2599,-4.87651 -1.7329,0 -1.5329,1.19937 0.6659,3.99468 2.1688,2.75735 3.594,3.10701 3.594,0.88183 z m -74.1258,-16.74105 c 0,-1.14365 -3.2458,-2.88724 -3.9899,-2.14326 -0.7996,0.79969 1.2084,3.0262 2.7293,3.0262 0.6934,0 1.2606,-0.39732 1.2606,-0.88295 z m -0.9152,-7.35327 c 0,-0.50332 -0.4118,-0.91513 -0.9151,-0.91513 -0.5033,0 -0.9151,0.41181 -0.9151,0.91513 0,0.50333 0.4118,0.91514 0.9151,0.91514 0.5033,0 0.9151,-0.41181 0.9151,-0.91514 z m -242.0919,-11.8335 c 0.6768,-1.09505 -1.0447,-2.18006 -2.2637,-1.42671 -1.0234,0.63252 -0.3516,2.27861 0.9301,2.27861 0.4438,0 1.0441,-0.38337 1.3336,-0.8519 z m 270.7383,-16.98067 c 0.099,-0.49643 -0.5402,-1.0414 -1.4211,-1.21103 -1.0017,-0.19291 -1.6015,0.25594 -1.6015,1.19849 0,1.59214 2.7046,1.60335 3.0226,0.0125 z m -158.2356,-68.72242 c 0.7816,-2.03705 0.721,-2.21299 -0.7633,-2.21299 -1.6167,0 -2.6503,1.50598 -1.8842,2.7454 0.8348,1.35081 2.016,1.11328 2.6475,-0.53241 z m 6.6877,-3.67989 c 0.4844,-1.45308 -2.1015,-4.36071 -3.2481,-3.65214 -1.4072,0.8697 -1.346,3.93455 0.09,4.50895 1.5044,0.60178 2.788,0.25355 3.1581,-0.85681 z m 90.8719,-4.38135 c 0,-0.73286 -6.5349,-1.08937 -6.9731,-0.38041 -0.2508,0.40582 1.2156,0.73786 3.2586,0.73786 2.0429,0 3.7145,-0.16085 3.7145,-0.35745 z m 8.465,-0.24863 c -0.6291,-0.25386 -1.6587,-0.25386 -2.2879,0 -0.6291,0.25387 -0.1143,0.46159 1.1439,0.46159 1.2584,0 1.7731,-0.20772 1.144,-0.46159 z m -71.6092,-11.80224 c 0,-0.78469 -0.4119,-1.17219 -0.9152,-0.86112 -0.5033,0.31107 -0.9151,0.95309 -0.9151,1.42672 0,0.47361 0.4118,0.86112 0.9151,0.86112 0.5033,0 0.9152,-0.64203 0.9152,-1.42672 z m 150.4016,0.0833 c 0.6878,-1.7924 -1.2227,-2.8939 -2.2383,-1.29048 -1.1489,1.81397 -1.0095,2.63387 0.448,2.63387 0.7011,0 1.5067,-0.60453 1.7903,-1.34339 z m -180.7949,-2.42749 c 0.2169,-1.13935 -0.2581,-1.37973 -2.0497,-1.03723 -2.9335,0.56077 -3.2014,3.22917 -0.2825,2.8127 1.1274,-0.16083 2.1769,-0.9598 2.3322,-1.77547 z m 26.571,0.4294 c -0.2882,-1.47232 -4.414,-2.82336 -4.414,-1.4454 0,0.54561 2.3522,2.06131 4.414,2.8443 0.1627,0.0618 0.1627,-0.56769 0,-1.39886 z m 46.8335,-3.10801 c 1.7217,-0.58417 1.1067,-0.72041 -2.485,-0.55048 -2.625,0.12418 -5.0615,0.51456 -5.4145,0.8675 -0.8792,0.87918 5.0789,0.64007 7.8995,-0.31702 z m 10.0665,-1.78667 c 0,-0.50332 -0.3875,-0.91513 -0.8611,-0.91513 -0.4736,0 -1.1156,0.41181 -1.4267,0.91513 -0.3111,0.50332 0.076,0.91514 0.8611,0.91514 0.7847,0 1.4267,-0.41182 1.4267,-0.91514 z m 55.8232,-22.31214 c 0,-1.46282 -7.3668,-3.58779 -9.543,-2.75271 -1.844,0.70761 -1.8121,1.24361 0.1628,2.74286 2.2018,1.67136 9.3802,1.6789 9.3802,0.01 z m -12.1627,-1.82287 c -0.4318,-1.29694 -3.0187,-1.83099 -5.0495,-1.04238 -1.3294,0.51623 -1.2314,0.7717 0.6936,1.80883 2.4404,1.31468 4.9044,0.88112 4.3559,-0.76645 z m -225.3146,-27.11248 c -0.311,-0.50332 -1.056,-0.90883 -1.6554,-0.90112 -0.6549,0.008 -0.5421,0.36809 0.2827,0.90112 1.7582,1.13616 2.0749,1.13616 1.3727,0 z m -42.5536,-29.28428 c 0,-0.50332 -0.6038,-0.91513 -1.3417,-0.91513 -1.6007,0 -7.8096,-2.86299 -7.81,-3.60125 -4e-4,-0.69728 -6.1031,-0.66225 -6.807,0.0391 -0.3069,0.30577 0.1226,1.12938 0.9546,1.83027 3.0657,2.58281 15.0041,4.68899 15.0041,2.64704 z m -17.3876,-4.42213 c 0,-0.41888 -1.4152,-1.19591 -3.1448,-1.72675 -2.4546,-0.75335 -3.2466,-0.69961 -3.6091,0.24491 -0.2554,0.66553 0.027,1.41005 0.6282,1.65449 1.8507,0.75293 6.1257,0.63243 6.1257,-0.17265 z m -7.8379,-2.80305 c 0.2785,-0.45057 -0.109,-1.05537 -0.8611,-1.34398 -0.8307,-0.31874 -1.3675,0.003 -1.3675,0.81924 0,1.48012 1.4301,1.81684 2.2286,0.52474 z m -3.506,-4.42371 c -0.9302,-0.93025 -1.6978,0.47027 -0.9345,1.70524 0.5766,0.9329 0.7922,0.93363 1.1021,0.004 0.2119,-0.63583 0.1366,-1.40485 -0.1676,-1.70894 z m -3.2983,-0.19384 c 0,-1.07973 -1.7847,-2.23476 -2.4403,-1.57924 -0.6555,0.65553 0.4995,2.44037 1.5792,2.44037 0.4736,0 0.8611,-0.38751 0.8611,-0.86113 z m 3.4751,-3.58055 c 1.6023,-1.01637 -0.2536,-2.39467 -3.7038,-2.75069 -3.1252,-0.32249 -3.5398,2.29233 -0.4576,2.88599 1.1325,0.21812 2.2649,0.44637 2.5166,0.50721 0.2517,0.0608 0.9918,-0.2283 1.6448,-0.64251 z m -14.6513,-7.22628 c -0.5195,-0.62916 -1.6148,-1.14923 -2.434,-1.15572 -0.8192,-0.007 -4.0999,-0.83012 -7.2906,-1.83027 -6.3529,-1.99143 -10.7057,-2.32826 -11.5904,-0.89687 -0.3133,0.50688 0.1772,1.16194 1.0899,1.45569 0.9128,0.29374 2.4831,0.89036 3.4898,1.32581 2.7368,1.18389 9.4626,2.28561 13.8225,2.26421 2.9782,-0.0147 3.642,-0.27964 2.9128,-1.16285 z m -72.1009,-7.72157 c 4.081,-1.85231 9.3241,-3.48882 11.1774,-3.48882 0.7913,0 1.6771,-0.62153 1.9687,-1.38119 0.2915,-0.75965 1.0047,-1.27442 1.585,-1.14392 0.5802,0.13051 1.2656,-0.34311 1.523,-1.05247 0.3482,-0.95937 0.026,-1.10423 -1.2583,-0.56555 -0.9495,0.3983 -4.4156,1.2104 -7.7024,1.80466 -8.768,1.58523 -13.1677,3.97421 -13.5521,7.3586 -0.2911,2.5618 -0.2055,2.64463 1.3727,1.32738 0.9257,-0.77272 3.1243,-2.05912 4.886,-2.85869 z m 174.7906,0.98894 c 0,-1.04564 -2.4817,-1.06926 -3.1241,-0.0297 -0.2678,0.43312 -0.2518,1.02246 0.035,1.30965 0.7142,0.71416 3.0887,-0.26982 3.0887,-1.27991 z m -121.5451,-1.93064 c -0.6567,-0.65666 -1.0829,-0.71069 -1.0829,-0.13727 0,0.52011 0.2746,1.22018 0.6101,1.55573 0.3356,0.33555 0.8229,0.39732 1.0829,0.13727 0.26,-0.26005 -0.014,-0.96013 -0.6101,-1.55573 z m -12.4055,-1.14195 c 2.7556,-0.30249 4.4415,-1.78313 3.5932,-3.1557 -0.9501,-1.53731 -9.6581,-1.28492 -9.6581,0.27992 0,0.70114 0.6438,1.52185 1.4306,1.82381 0.8009,0.3073 1.1415,1.01699 0.7738,1.612 -0.4195,0.6788 -0.2562,0.81531 0.4519,0.3777 0.6098,-0.3769 2.1437,-0.79888 3.4086,-0.93773 z m 72.8333,-2.97302 c 9.3806,-1.23395 8.4697,-2.08471 -2.1627,-2.01979 -9.5188,0.0581 -12.5174,0.70827 -11.4244,2.47693 0.6004,0.97133 3.4588,0.87515 13.5871,-0.45714 z m 11.4522,-1.73044 c -0.3041,-0.3041 -1.0934,-0.3366 -1.7541,-0.0722 -0.73,0.29213 -0.5131,0.50898 0.5529,0.55289 0.9647,0.0397 1.5052,-0.17656 1.2012,-0.48064 z m 6.1962,-0.36224 c 1.6218,-0.69693 1.5436,-0.79382 -0.6864,-0.85081 -1.3841,-0.0354 -2.5166,0.34748 -2.5166,0.85081 0,1.0741 0.7034,1.0741 3.203,0 z m 51.2475,-12.3893 c 2.5166,-0.76333 4.6786,-1.37659 4.8044,-1.36279 0.1259,0.0138 0.3317,-0.27973 0.4576,-0.65228 0.4692,-1.38919 -5.4014,-1.60124 -9.2764,-0.33507 -3.6712,1.1996 -3.8714,1.41624 -2.3417,2.53478 0.9199,0.67267 1.6969,1.21859 1.7265,1.21315 0.03,-0.005 2.113,-0.63445 4.6296,-1.39779 z m -8.9416,-0.0603 c -0.3041,-0.30409 -1.0934,-0.33659 -1.7541,-0.0722 -0.7299,0.29214 -0.5131,0.50898 0.5529,0.55289 0.9647,0.0398 1.5052,-0.17655 1.2012,-0.48064 z m 173.2081,-8.59847 c 0,-0.50333 -0.4118,-0.91514 -0.9151,-0.91514 -0.5034,0 -0.9152,0.41181 -0.9152,0.91514 0,0.50332 0.4118,0.91513 0.9152,0.91513 0.5033,0 0.9151,-0.41181 0.9151,-0.91513 z m 33.3633,-12.74865 c 0.6768,-1.09505 -1.0448,-2.18005 -2.2637,-1.4267 -1.0234,0.63252 -0.3515,2.27861 0.9301,2.27861 0.4439,0 1.044,-0.38336 1.3336,-0.85191 z m 16.0539,-60.46204 c 0,-0.50332 -0.6177,-0.91513 -1.3727,-0.91513 -0.755,0 -1.3727,0.41181 -1.3727,0.91513 0,0.50332 0.6177,0.91514 1.3727,0.91514 0.755,0 1.3727,-0.41182 1.3727,-0.91514 z m 16.297,-52.2313 c -0.1803,-0.54103 -0.7191,-0.98374 -1.1973,-0.98374 -0.4781,0 -1.0169,0.44271 -1.1973,0.98374 -0.1803,0.5411 0.3585,0.98381 1.1973,0.98381 0.839,0 1.3777,-0.44271 1.1973,-0.98381 z m 55.9986,-48.48613 c 0,-1.43925 -1.9174,-1.9294 -3.2431,-0.82919 -0.7329,0.60831 -1.3326,0.82538 -1.3326,0.48239 0,-0.34299 -0.4874,-0.32242 -1.0832,0.0461 -0.742,0.45859 -0.5305,0.8633 0.6718,1.285 2.0228,0.70955 4.9871,0.12467 4.9871,-0.98403 z m -146.0614,-5.02262 c 1.7794,-0.33384 3.7122,-1.18155 4.2952,-1.88393 0.5828,-0.70231 2.2204,-1.27695 3.639,-1.27695 2.9527,0 4.1107,-1.19838 2.4486,-2.53404 -1.7778,-1.42848 -13.5927,0.46497 -15.6744,2.51201 -1.9295,1.8974 -1.3644,5.10249 0.7562,4.28875 0.715,-0.27439 2.7559,-0.772 4.5354,-1.10584 z m -61.674,-1.33061 c 1.11,-0.71739 0.9787,-0.8898 -0.6863,-0.90115 -1.1326,-0.007 -2.0591,0.39783 -2.0591,0.90115 0,1.14655 0.9712,1.14655 2.7454,0 z m 77.7864,-4.75057 c 0,2.07714 2.795,1.07883 3.7088,-1.32474 0.505,-1.32812 0.7804,-2.55235 0.6122,-2.72059 -0.4761,-0.47616 -7.4242,1.54988 -8.3546,2.43624 -0.4929,0.46964 -0.3265,1.39861 0.4094,2.28541 1.1425,1.37651 1.3339,1.36582 2.4322,-0.13617 0.6555,-0.89661 1.192,-1.13967 1.192,-0.54015 z m 8.2362,1.62243 c 0,-1.39503 -1.2462,-3.18123 -1.9261,-2.761 -1.3387,0.82735 -0.9309,3.14374 0.5534,3.14374 0.755,0 1.3727,-0.17226 1.3727,-0.38274 z m 34.775,-1.85106 c 0,-0.22198 -0.4118,-0.65809 -0.9151,-0.96917 -0.5033,-0.31107 -0.9151,-0.12951 -0.9151,0.40354 0,0.53305 0.4118,0.96917 0.9151,0.96917 0.5033,0 0.9151,-0.18164 0.9151,-0.40354 z m -257.0654,484.19265 c -1.0834,-1.75285 -1.8926,-3.53115 -1.7983,-3.9518 0.094,-0.42064 -0.1389,-1.58842 -0.5182,-2.59507 -3.2051,-8.50487 -4.498,-11.52983 -5.0823,-11.8909 -0.3742,-0.2313 -0.2582,-2.26544 0.2577,-4.52029 1.0435,-4.56019 -0.1534,-7.26207 -2.772,-6.25723 -0.9655,0.37049 -1.233,0.19805 -0.7942,-0.51196 0.3639,-0.58887 1.1522,-1.07147 1.7516,-1.07248 0.5995,-9.1e-4 1.1798,-1.28147 1.2897,-2.84549 0.2173,-3.09255 1.6723,-5.3889 3.4144,-5.3889 0.704,0 0.9565,0.99161 0.6991,2.74541 -0.2255,1.53664 -0.9615,2.7454 -1.6718,2.7454 -0.6978,0 -1.2688,0.32945 -1.2688,0.73211 0,1.54036 2.3037,2.92842 4.8601,2.92842 l 2.6638,0 -2.0458,1.65659 c -1.9928,1.61362 -2.0155,1.83319 -0.8774,8.46498 0.6427,3.74464 1.5178,7.19962 1.9445,7.67779 0.4268,0.47815 0.7759,1.79223 0.7759,2.92016 0,1.12795 0.3713,2.28026 0.825,2.56069 1.7158,1.06042 2.5343,5.50038 1.4135,7.66803 l -1.0968,2.12153 -1.9697,-3.18699 z m 19.1307,-18.90117 c -0.755,-0.48791 -2.6081,-0.89973 -4.1181,-0.91514 -1.51,-0.0154 -3.3632,-0.44135 -4.1181,-0.94654 -1.1913,-0.79711 -1.1444,-1.09286 0.3543,-2.23775 1.5053,-1.14979 1.9723,-1.14755 3.6355,0.0174 3.9608,2.77432 8.0331,0.55833 4.392,-2.39 -2.6378,-2.13593 -2.5375,-2.42009 1.4408,-4.08233 3.1256,-1.30593 3.7062,-1.29702 6.8143,0.10452 1.8687,0.84266 4.031,1.28906 4.805,0.99201 1.9598,-0.75201 6.2914,1.92828 8.6285,5.33907 3.1365,4.57736 2.2683,5.33181 -1.7018,1.47896 -4.4819,-4.34955 -6.9001,-5.13334 -8.5537,-2.77247 -0.6708,0.95756 -3.1603,2.77297 -5.5324,4.03423 -4.9878,2.65201 -4.313,2.49822 -6.0463,1.37805 z m -12.7314,-9.3325 c -4.8279,-1.07657 -3.5657,-2.41171 2.28,-2.41171 3.0461,0 3.9697,0.37407 4.3305,1.75399 0.5192,1.98514 -0.2943,2.06607 -6.6105,0.65772 z m 42.683,-0.37173 c -0.367,-0.36701 -0.6674,-1.29873 -0.6674,-2.0705 0,-1.03006 0.2708,-1.13247 1.0182,-0.38512 0.5599,0.55997 0.8602,1.49167 0.6672,2.0705 -0.193,0.57882 -0.651,0.75212 -1.018,0.38512 z m -16.2246,-3.56521 c 0,-0.75499 0.6177,-1.3727 1.3727,-1.3727 0.7549,0 1.3727,0.61771 1.3727,1.3727 0,0.75498 -0.6178,1.3727 -1.3727,1.3727 -0.755,0 -1.3727,-0.61772 -1.3727,-1.3727 z m -19.6754,-7.77864 c -0.3111,-0.50332 -0.1295,-0.91513 0.4036,-0.91513 0.533,0 0.9691,0.41181 0.9691,0.91513 0,0.50333 -0.1816,0.91513 -0.4035,0.91513 -0.222,0 -0.6581,-0.4118 -0.9692,-0.91513 z m -9.1513,-0.91513 c 0.3111,-0.50333 0.7472,-0.91513 0.9691,-0.91513 0.2219,0 0.4036,0.4118 0.4036,0.91513 0,0.50332 -0.4361,0.91513 -0.9692,0.91513 -0.533,0 -0.7146,-0.41181 -0.4035,-0.91513 z M -2845.077,-9.2556 c 0.6606,-0.26435 1.4499,-0.23185 1.754,0.0722 0.304,0.30409 -0.2365,0.52038 -1.2012,0.48064 -1.066,-0.0439 -1.2829,-0.26075 -0.5528,-0.55288 z m -5.1306,-3.72175 c 0.1815,-1.08103 -0.3259,-1.60148 -1.5614,-1.60148 -1.0066,0 -1.7273,0.51476 -1.6014,1.14391 0.1258,0.62915 -0.389,1.14392 -1.1439,1.14392 -1.943,0 -1.702,-1.45218 0.5961,-3.59324 2.2844,-2.12825 3.0238,-1.85485 4.9246,1.821 1.2525,2.42188 1.2479,2.68737 -0.047,2.68737 -0.8602,0 -1.3285,-0.64228 -1.1674,-1.60148 z"
         style="fill-opacity:1" />
      <g
         clip-path="url(#clipPath4152)"
         transform="matrix(0.86990978,0.36352597,-0.36352597,0.86990978,-133.8394,1283.4844)"
         id="g4456">
        <rect
           y="-618.63782"
           x="-3292"
           height="35"
           width="970"
           id="rect4442"
           style="fill:#d44040;fill-opacity:1" />
        <rect
           style="fill:#d89826;fill-opacity:1"
           id="rect4444"
           width="970"
           height="35"
           x="-3292"
           y="-583.63782" />
        <rect
           y="-549.63782"
           x="-3292"
           height="35"
           width="970"
           id="rect4446"
           style="fill:#d8d226;fill-opacity:1" />
        <rect
           style="fill:#9ed826;fill-opacity:1"
           id="rect4448"
           width="970"
           height="35"
           x="-3292"
           y="-516.63782" />
        <rect
           y="-482.63782"
           x="-3292"
           height="35"
           width="970"
           id="rect4450"
           style="fill:#2677d8;fill-opacity:1" />
        <rect
           style="fill:#4e2edc;fill-opacity:1"
           id="rect4452"
           width="970"
           height="35"
           x="-3292"
           y="-448.63782" />
        <rect
           y="-414.63782"
           x="-3292"
           height="35"
           width="970"
           id="rect4454"
           style="fill:#c62edc;fill-opacity:1" />
      </g>
    </g>
  </g>
</svg>
